<?xml version="1.0" standalone="no"?>
<!DOCTYPE svg PUBLIC "-//W3C//DTD SVG 1.1//EN" "http://www.w3.org/Graphics/SVG/1.1/DTD/svg11.dtd" >
<svg xmlns="http://www.w3.org/2000/svg" xmlns:xlink="http://www.w3.org/1999/xlink" version="1.1">
<metadata>
Created by FontForge 20170731 at Fri Jan  1 02:30:17 1904
 By Aleksey,,,
Copyright   c   1993 - Roger White -  All Rights Reserved - see .txt file for terms for distribution and use.
</metadata>
<defs>
<font id="Swansea" horiz-adv-x="557" >
  <font-face 
    font-family="Swansea"
    font-weight="400"
    font-stretch="normal"
    units-per-em="1000"
    panose-1="2 11 5 0 0 0 0 0 0 0"
    ascent="800"
    descent="-200"
    x-height="523"
    cap-height="719"
    bbox="-19 -229 1000 949"
    underline-thickness="50"
    underline-position="-150"
    unicode-range="U+0020-2122"
  />
<missing-glyph horiz-adv-x="502" 
d="M-1 0h500v500h-500v-500zM9 10v480h480v-480h-480z" />
    <glyph glyph-name=".notdef" horiz-adv-x="502" 
d="M-1 0h500v500h-500v-500zM9 10v480h480v-480h-480z" />
    <glyph glyph-name=".null" horiz-adv-x="0" 
 />
    <glyph glyph-name="nonmarkingreturn" horiz-adv-x="333" 
 />
    <glyph glyph-name="space" unicode=" " horiz-adv-x="277" 
 />
    <glyph glyph-name="space" unicode="&#xa0;" horiz-adv-x="277" 
 />
    <glyph glyph-name="exclam" unicode="!" horiz-adv-x="277" 
d="M90 0h96v102h-96v-102zM90 477l23 -307h49l24 309v240h-96v-242z" />
    <glyph glyph-name="quotedbl" unicode="&#x22;" horiz-adv-x="355" 
d="M143 463v256h-75v-256h75zM211 719v-256h74v256h-74z" />
    <glyph glyph-name="numbersign" unicode="#" 
d="M131 209l-29 -209h66l27 209h127l-29 -209h66l30 209h101l10 64h-104l20 141h104l9 65h-103l29 209h-68l-28 -209h-125l30 209h-67l-29 -209h-104l-9 -65h103l-19 -141h-102l-10 -64h104zM225 414h125l-20 -141h-125z" />
    <glyph glyph-name="dollar" unicode="$" 
d="M502 521q0 103 -63 143q-64 40 -140 47v64h-47v-64q-56 0 -105 -26q-47 -27 -75 -71q-27 -45 -27 -98q0 -47 17 -83q17 -35 45 -56q28 -22 64 -34q31 -12 81 -25v-265q-52 8 -77 24q-28 17 -41 49q-8 21 -11 40q-4 17 -4 47h-88q0 -83 29 -133q29 -51 77 -73
q23 -11 56 -19q30 -8 59 -8v-95h47v95q47 0 99 20q51 20 87 69q35 50 35 126q0 141 -221 203v241q62 -12 88 -41q24 -30 31 -77h84zM252 408q-53 9 -85 37q-34 28 -34 76q0 28 14 58q13 27 41 44q26 16 64 16v-231zM299 307q59 -19 97 -48q36 -30 36 -85q0 -37 -19 -62
q-18 -28 -49 -43q-30 -16 -65 -16v254z" />
    <glyph glyph-name="percent" unicode="%" horiz-adv-x="889" 
d="M219 -20h54l397 723h-57zM209 695q-44 0 -85 -23q-39 -23 -62 -64t-23 -85t23 -84q23 -41 62 -62q41 -23 85 -23t85 23q39 22 64 61q23 41 23 85q0 45 -23 86q-24 39 -63 63q-41 23 -86 23zM207 625q49 0 76 -29q26 -31 26 -71t-27 -70q-28 -31 -75 -31q-44 0 -70 30
q-15 17 -21 33q-7 15 -7 38q0 39 27 70q26 30 71 30zM676 328q-44 0 -84 -23q-40 -22 -63 -62q-23 -41 -23 -85t23 -85q24 -43 62 -64q41 -23 85 -23t85 23q40 22 63 64q22 40 22 85q0 37 -13 67q-12 28 -37 53t-53 37q-30 13 -67 13zM674 258q48 0 75 -29q26 -29 26 -71
q0 -23 -11 -48q-14 -24 -35 -37q-23 -14 -55 -14q-44 0 -71 30q-27 29 -27 69q0 41 27 71q26 29 71 29z" />
    <glyph glyph-name="ampersand" unicode="&#x26;" horiz-adv-x="668" 
d="M518 154q27 52 41 96q15 45 15 88h-82q-13 -70 -29 -113l-131 156q38 26 63 48t46 60q20 37 20 81q0 38 -17 73q-16 34 -54 55q-37 21 -91 21q-55 0 -92 -22q-39 -23 -58 -60q-20 -38 -20 -78q0 -13 2 -29q2 -12 6 -24q6 -16 11 -25q3 -7 8 -16l3 -6l46 -61
q-107 -58 -139 -117q-12 -23 -18 -47q-7 -24 -7 -54q0 -33 10 -60q10 -32 25 -56q54 -80 178 -80q50 0 89 13q39 12 68 35q30 23 52 50l68 -82h114zM416 141q-56 -80 -156 -80q-22 0 -52 12q-32 12 -54 40q-23 28 -23 67q0 36 14 62t38 46q35 27 71 50zM285 439
q-23 23 -47 60q-23 35 -23 65q0 29 18 54t66 25q30 0 53 -19q23 -20 23 -61t-23 -67q-25 -28 -67 -57z" />
    <glyph glyph-name="quotesingle" unicode="'" horiz-adv-x="223" 
d="M105 611q0 -92 -52 -101v-47q36 7 59 30q15 15 21 26q9 15 13 27q10 29 10 65v108h-103v-108h52z" />
    <glyph glyph-name="parenleft" unicode="(" horiz-adv-x="332" 
d="M236 732q-38 -47 -80 -127q-39 -75 -64 -161q-24 -84 -24 -161q0 -40 3 -70q1 -19 6 -60l1 -4q5 -41 11 -60q6 -25 15 -51q21 -55 52 -110q33 -59 86 -137l57 2q-36 60 -65 130q-26 64 -42 119q-16 56 -22 101q-5 31 -8 60q-2 22 -2 49q0 78 10 138q11 69 29 124
q20 60 42 111q31 63 56 107h-61z" />
    <glyph glyph-name="parenright" unicode=")" horiz-adv-x="332" 
d="M33 -207h63q28 35 62 96q28 50 56 125q23 64 37 132q13 62 13 120q0 82 -22 158q-24 83 -50 138q-30 61 -57 104l-43 66h-59q55 -111 74 -160q27 -63 40 -116q4 -15 8 -35q2 -7 3 -12q2 -14 6 -44q0 -5 2 -20q1 -21 2 -35q2 -42 2 -64q0 -220 -137 -453z" />
    <glyph glyph-name="asterisk" unicode="*" horiz-adv-x="389" 
d="M146 557l-66 -92l49 -33l64 93l67 -95l49 35l-69 92l110 35l-22 54l-105 -39v112h-59v-112l-105 39l-20 -54z" />
    <glyph glyph-name="plus" unicode="+" horiz-adv-x="584" 
d="M256 289h-217v-74h217v-215h72v215h217v74h-217v215h-72v-215z" />
    <glyph glyph-name="comma" unicode="," horiz-adv-x="277" 
d="M86 0h55q0 -102 -55 -102v-46q103 22 103 148v105h-103v-105z" />
    <glyph glyph-name="hyphen" unicode="-" horiz-adv-x="332" 
d="M289 322h-246v-90h246v90z" />
    <glyph glyph-name="period" unicode="." horiz-adv-x="277" 
d="M86 0h111v109h-111v-109z" />
    <glyph glyph-name="slash" unicode="/" horiz-adv-x="277" 
d="M295 736h-66l-247 -756h67z" />
    <glyph glyph-name="zero" unicode="0" 
d="M39 400l-2 -35l-2 -37q0 -90 25 -168q26 -82 80 -130q55 -50 137 -50q59 0 105 27q45 25 78 73q30 47 44 109q14 64 14 138v27q0 55 -9 107q-11 55 -26 91q-30 78 -82 115q-52 36 -124 36q-77 0 -129 -40q-48 -36 -74 -102q-26 -68 -35 -161zM131 361q0 65 14 127
q14 61 46 97q33 38 84 38q44 0 79 -29q32 -29 52 -93q18 -64 18 -163q0 -67 -9 -126q-11 -62 -44 -106q-35 -47 -96 -47q-80 0 -112 84q-32 85 -32 218z" />
    <glyph glyph-name="one" unicode="1" 
d="M264 0h95v703h-70q-8 -48 -29 -75q-20 -29 -44 -39q-29 -12 -63 -16l-53 -5v-70h164v-498z" />
    <glyph glyph-name="two" unicode="2" 
d="M25 0h481v82h-381q9 32 24 56q14 23 35 38q47 34 134 79q91 47 138 97q24 26 38 60q12 32 12 74q0 73 -31 122t-83 72t-107 23q-83 0 -138 -34q-54 -34 -79 -92q-25 -56 -25 -126h88q0 172 146 172q60 0 98 -35q37 -34 37 -98q0 -68 -38 -97q-39 -32 -138 -86
q-99 -55 -154 -122q-28 -34 -42 -80q-15 -46 -15 -105z" />
    <glyph glyph-name="three" unicode="3" 
d="M424 162q-6 -43 -51 -73q-26 -17 -50 -24q-27 -8 -55 -8q-20 3 -59 11q-39 17 -61 53q-23 37 -23 94h-92q0 -66 19 -110q19 -46 52 -73q64 -52 164 -52q79 0 138 32q57 31 86 79q28 46 28 89q0 69 -28 123t-90 68q92 29 92 162q0 43 -25 81q-24 38 -76 64q-48 25 -116 25
q-77 0 -126 -31q-52 -32 -75 -83q-25 -51 -25 -116h86q0 45 16 77q15 35 45 54q29 19 73 19q37 0 66 -13q28 -13 48 -41q17 -29 17 -63q0 -49 -37 -79q-37 -31 -109 -31l-33 2v-74h27q77 0 127 -26q49 -27 49 -103z" />
    <glyph glyph-name="four" unicode="4" 
d="M23 256v-86h309v-170h88v170h103v76h-103v457h-74zM105 246l227 322v-322h-227z" />
    <glyph glyph-name="five" unicode="5" 
d="M31 174q0 -37 20 -77t49 -63q17 -13 36 -24q16 -9 38 -16q47 -14 94 -14q44 0 77 10q35 9 64 28q55 35 80 89t25 127q0 49 -19 88t-51 68q-31 28 -74 45q-42 16 -89 16q-39 0 -77 -11q-36 -10 -58 -32l30 194h299v86h-366l-52 -377l76 -4q17 32 54 48q36 16 79 16
q66 0 110 -41q44 -42 44 -127q0 -32 -12 -58q-14 -29 -35 -48q-40 -40 -98 -40q-137 0 -152 117h-92z" />
    <glyph glyph-name="six" unicode="6" 
d="M37 322v-16l-1 -12q0 -75 19 -132q18 -58 53 -99q17 -21 39 -37q19 -15 44 -24q51 -22 108 -22q66 0 116 35t78 89q27 56 27 117t-28 113q-28 51 -82 83q-55 32 -113 32q-59 0 -103 -26q-42 -24 -65 -68q0 48 7 84q6 39 19 69q23 60 60 87q34 28 78 28q51 0 84 -27
q31 -28 39 -80h86q0 55 -28 98t-77 66q-25 12 -48 17q-25 6 -50 6q-43 0 -78 -12q-38 -14 -63 -35q-54 -43 -79 -104q-15 -34 -21 -59q-7 -23 -10 -53q-7 -45 -9 -64q-2 -24 -2 -54zM141 203q0 49 17 88q17 40 50 58q34 20 79 20q57 0 98 -38q41 -39 41 -118q0 -74 -42 -115
q-43 -39 -91 -39q-36 0 -73 17q-18 8 -31 21q-18 18 -25 28q-23 35 -23 78z" />
    <glyph glyph-name="seven" unicode="7" 
d="M135 0h97q26 121 60 214q10 30 32 82l2 6q13 31 35 73q18 35 36 63q15 24 36 54t39 54l9 12q19 24 42 53v77h-486v-86h387q-49 -58 -105 -144q-54 -81 -109 -205q-53 -120 -75 -253z" />
    <glyph glyph-name="eight" unicode="8" 
d="M492 521q0 46 -22 87q-22 40 -73 68q-49 27 -122 27q-80 0 -126 -31q-49 -32 -68 -76q-20 -46 -20 -86q0 -101 95 -137q-119 -50 -119 -172q0 -48 13 -87q14 -42 59 -79q36 -27 82 -42q44 -16 90 -16q45 0 91 17q44 17 77 48q32 30 51 72q18 41 18 89q0 50 -27 98
q-27 46 -89 72q29 17 45 30t31 42q14 33 14 76zM277 330q63 0 104 -35t41 -102q0 -134 -141 -134q-57 0 -89 22q-34 23 -47 55q-14 33 -14 63q0 36 16 64q17 29 50 48q32 19 80 19zM275 406q-48 0 -86 30q-37 30 -37 78q0 42 27 76q29 33 91 33q71 0 100 -31q30 -31 30 -72
q0 -51 -34 -82q-35 -32 -91 -32z" />
    <glyph glyph-name="nine" unicode="9" 
d="M41 447q0 -64 31 -113q33 -51 82 -76q51 -26 102 -26q24 0 48 6q25 7 45 16q44 20 77 59q-9 -88 -33 -147q-26 -62 -59 -86q-34 -27 -76 -27q-108 0 -121 115h-88q0 -30 8 -57q7 -24 23 -48q29 -41 76 -62q46 -22 102 -22l23 1q50 4 90 30q43 27 73 74q32 50 51 127
q19 75 19 189q0 78 -22 144t-78 113q-56 46 -154 46q-27 0 -52 -5q-20 -5 -45 -17q-38 -19 -67 -54q-28 -34 -42 -80q-13 -45 -13 -100zM133 477q0 63 38 104q20 20 45 32q26 12 55 12q51 0 92 -32q39 -32 47 -97l2 -29q0 -44 -17 -81q-17 -33 -49 -53t-78 -20l-4 -2
q-131 0 -131 166z" />
    <glyph glyph-name="colon" unicode=":" horiz-adv-x="277" 
d="M191 105h-105v-105h105v105zM191 516h-105v-106h105v106z" />
    <glyph glyph-name="semicolon" unicode=";" horiz-adv-x="277" 
d="M86 0h53q0 -98 -53 -102v-46q35 4 70 37q35 32 35 119v97h-105v-105zM191 410v106h-105v-106h105z" />
    <glyph glyph-name="less" unicode="&#x3c;" horiz-adv-x="584" 
d="M47 217l488 -207v80l-390 162l390 162v80l-488 -207v-70z" />
    <glyph glyph-name="equal" unicode="=" horiz-adv-x="584" 
d="M545 391h-506v-75h506v75zM545 188h-506v-73h506v73z" />
    <glyph glyph-name="greater" unicode="&#x3e;" horiz-adv-x="584" 
d="M47 414l391 -162l-391 -162v-80l488 207v70l-488 207v-80z" />
    <glyph glyph-name="question" unicode="?" 
d="M221 0h95v102h-95v-102zM55 492h88q0 80 33 119t105 39q38 0 63 -16t37 -42q12 -27 12 -59q0 -58 -34 -92l-88 -91q-48 -52 -48 -168h88q0 36 3 58q5 25 18 47q16 27 41 53l38 42l43 48q16 20 24 47q10 23 10 58q0 38 -12 72q-14 34 -38 61q-25 27 -65 43q-35 16 -88 16
q-76 0 -127 -30q-52 -29 -77 -82q-26 -53 -26 -123z" />
    <glyph glyph-name="at" unicode="@" horiz-adv-x="1016" 
d="M643 494q-37 78 -116 78q-68 0 -121 -41t-82 -105q-14 -32 -22 -66q-7 -29 -7 -65q0 -45 19 -80q20 -36 53 -58q34 -22 76 -22q60 0 121 64q0 -30 20 -47t45 -17q34 0 75 20t80 59q40 40 62 92q23 54 23 118q0 68 -28 125q-28 58 -76 100q-49 43 -111 65t-131 22
q-99 0 -187 -49q-87 -49 -139 -137q-51 -87 -51 -189q0 -103 51 -192q49 -88 139 -138q89 -51 193 -51q64 0 122 21q57 21 108 62q47 39 83 93h-69q-27 -33 -67 -60q-39 -26 -85 -39q-48 -14 -90 -14q-84 0 -157 41q-73 40 -114 113q-41 71 -41 158q0 88 39 161
q39 74 109 117t156 43q77 0 140 -31q65 -32 103 -91q37 -58 37 -138q0 -53 -22 -103q-22 -49 -55 -81q-32 -31 -66 -31q-19 0 -19 29q0 12 12 55q4 21 15 55q11 39 23 78l39 139h-68zM596 334q-19 -52 -55 -89q-38 -38 -80 -38q-88 0 -88 80q0 22 6 46q5 24 15 51
q17 47 53 83q35 33 82 33q84 0 84 -80q0 -30 -17 -86z" />
    <glyph glyph-name="A" unicode="A" horiz-adv-x="668" 
d="M14 0h99l75 209h289l70 -209h107l-259 719h-112zM219 295l115 318l107 -318h-222z" />
    <glyph glyph-name="B" unicode="B" horiz-adv-x="668" 
d="M72 0h330q61 0 112 27t81 80t30 122q0 59 -36 99q-37 40 -93 59q28 10 49 33q23 21 33 52q12 30 12 65q0 52 -26 95q-25 42 -70 65q-44 23 -98 23h-324v-720zM170 82v252h193q98 0 132 -34t34 -97q0 -26 -14 -57q-15 -28 -46 -46t-74 -18h-225zM170 414v221h187
q71 0 105 -29q32 -29 32 -90q0 -38 -31 -69q-31 -33 -104 -33h-189z" />
    <glyph glyph-name="C" unicode="C" horiz-adv-x="723" 
d="M43 354q0 -39 6 -74t19 -74q20 -68 59 -117q41 -52 103 -80q63 -29 145 -29q43 0 79 10q41 12 72 29q67 37 107 101t49 144h-96q-14 -93 -69 -145q-57 -53 -152 -53l-4 -2q-20 0 -42 5q-24 6 -40 13q-37 18 -69 54q-31 39 -48 95q-17 57 -17 134q0 79 22 136q23 60 65 96
q42 37 98 48l27 3l28 2q74 0 126 -37q53 -37 69 -111h94q-14 90 -64 143q-52 55 -115 74t-124 19q-55 0 -102 -15q-51 -18 -86 -44q-74 -53 -107 -133q-34 -80 -34 -170v-11z" />
    <glyph glyph-name="D" unicode="D" horiz-adv-x="723" 
d="M80 720v-720h305q93 0 160 56q66 57 97 146q32 90 32 183q0 54 -12 100q-13 45 -36 84q-42 77 -108 114q-65 37 -137 37h-301zM178 82v553h189q52 0 93 -20q41 -21 66 -57q25 -35 37 -83q11 -52 11 -98q0 -77 -22 -142q-22 -66 -66 -110q-43 -43 -107 -43h-201z" />
    <glyph glyph-name="E" unicode="E" horiz-adv-x="668" 
d="M615 86h-433v240h394v86h-394v219h427v88h-523v-719h529v86z" />
    <glyph glyph-name="F" unicode="F" horiz-adv-x="611" 
d="M182 326h353v86h-353v219h400v88h-496v-719h96v326z" />
    <glyph glyph-name="G" unicode="G" horiz-adv-x="777" 
d="M389 301h224q0 -64 -16 -109q-16 -46 -64 -83q-65 -52 -150 -52q-29 0 -53 7q-23 6 -50 18q-48 22 -77 64q-57 75 -57 213q0 69 18 123q19 56 52 92q33 38 75 57q41 19 92 19q74 0 134 -33q59 -33 81 -117h93q-9 78 -55 131q-48 54 -113 79q-69 26 -136 26
q-111 0 -188 -55t-115 -141q-37 -84 -37 -175q0 -84 18 -153q18 -68 57 -121q40 -54 105 -82q66 -29 154 -29q45 0 93 14q42 12 83 40q38 26 60 58l24 -92h62v383h-314v-82z" />
    <glyph glyph-name="H" unicode="H" horiz-adv-x="723" 
d="M549 420h-375v299h-98v-719h98v334h375v-334h97v719h-97v-299z" />
    <glyph glyph-name="I" unicode="I" horiz-adv-x="277" 
d="M188 719h-98v-719h98v719z" />
    <glyph glyph-name="J" unicode="J" horiz-adv-x="500" 
d="M16 230v-70q0 -41 19 -81q18 -42 64 -70q47 -29 122 -29q52 0 100 20t77 67q30 48 30 126v526h-98v-531q0 -57 -26 -91q-25 -34 -89 -34q-52 0 -80 28q-28 27 -28 89v50h-91z" />
    <glyph glyph-name="K" unicode="K" horiz-adv-x="668" 
d="M172 252l113 107l252 -359h125l-307 428l299 291h-133l-349 -350v350h-96v-719h96v252z" />
    <glyph glyph-name="L" unicode="L" 
d="M172 719h-96v-719h461v86h-365v633z" />
    <glyph glyph-name="M" unicode="M" horiz-adv-x="832" 
d="M762 0v719h-139l-205 -610l-207 610h-139v-719h92v602l205 -602h96l201 604v-604h96z" />
    <glyph glyph-name="N" unicode="N" horiz-adv-x="723" 
d="M553 137l-362 582h-115v-719h94v580l367 -580h109v719h-93v-582z" />
    <glyph glyph-name="O" unicode="O" horiz-adv-x="777" 
d="M738 359q0 64 -18 128t-59 122q-40 57 -109 92q-68 35 -163 35q-94 0 -163 -35t-110 -92q-43 -60 -59 -122q-18 -64 -18 -128q0 -63 18 -128q18 -63 59 -123q41 -59 109 -93q69 -35 164 -35q94 0 164 35q69 35 109 93q39 56 58 122q18 65 18 129zM639 359q0 -83 -30 -151
q-30 -67 -86 -105q-56 -37 -134 -37t-133 37q-57 38 -87 105q-30 68 -30 151q0 84 30 150t86 104q55 37 134 37q78 0 134 -37q57 -38 86 -103q30 -67 30 -151z" />
    <glyph glyph-name="P" unicode="P" horiz-adv-x="668" 
d="M182 303h226q72 0 121 32q48 31 70 79q22 46 22 102t-26 105q-26 48 -75 73q-50 26 -112 26h-322v-720h96v303zM182 635h197q142 0 142 -119q0 -131 -146 -131h-193v250z" />
    <glyph glyph-name="Q" unicode="Q" horiz-adv-x="777" 
d="M732 2l-97 76q53 53 78 129q25 74 25 152q0 64 -18 128t-59 122q-40 57 -109 92q-68 35 -163 35q-94 0 -163 -35t-110 -92q-43 -60 -59 -122q-18 -64 -18 -128q0 -63 18 -128q18 -63 59 -123q41 -59 109 -93q69 -35 164 -35q112 0 185 49l110 -86zM420 146l74 -56
q-43 -24 -105 -24q-78 0 -133 37q-57 38 -87 105q-30 68 -30 151q0 84 30 150t86 104q55 37 134 37q78 0 134 -37q57 -38 86 -103q30 -67 30 -151q0 -142 -78 -222l-92 70z" />
    <glyph glyph-name="R" unicode="R" horiz-adv-x="723" 
d="M88 0h96v307h244q65 0 90 -28t28 -60q5 -38 5 -107q0 -74 13 -112h120v16q-24 8 -31 37q-8 30 -8 84q0 63 -4 100q-5 43 -24 74t-60 43q99 50 99 167q0 64 -31 108q-30 44 -82 67q-29 13 -55 17q-27 7 -58 7h-342v-720zM184 391v244h254q62 0 91 -35q28 -34 28 -88
q0 -17 -4 -30q-5 -16 -12 -29q-13 -28 -42 -45t-69 -17h-246z" />
    <glyph glyph-name="S" unicode="S" horiz-adv-x="668" 
d="M600 508q0 25 -6 52l-2 6q-9 31 -15 46q-20 50 -80 87q-61 37 -177 37q-85 0 -140 -31q-57 -32 -82 -81q-26 -50 -26 -108q0 -60 28 -94q26 -36 73 -56q44 -20 93 -31l107 -24q57 -13 92 -29q34 -15 47 -37t13 -61q0 -47 -29 -73t-72 -37q-44 -11 -86 -11q-51 0 -97 17
q-44 16 -73 54t-29 98h-90q0 -129 76 -190q77 -62 213 -62q68 0 132 21q65 20 107 69q42 50 42 127q0 154 -162 194l-205 47q-86 18 -86 89q0 73 51 100q50 27 113 27q41 0 85 -14q37 -15 66 -47q15 -20 22 -39q7 -20 7 -46h90z" />
    <glyph glyph-name="T" unicode="T" horiz-adv-x="611" 
d="M14 631h242v-631h98v631h244v88h-584v-88z" />
    <glyph glyph-name="U" unicode="U" horiz-adv-x="723" 
d="M78 232q0 -76 38 -135t101 -87q63 -30 133 -30q87 0 154 33q67 31 105 91q36 59 36 132v483h-98v-471q0 -52 -23 -95q-22 -41 -66 -64t-99 -23q-59 0 -101 24q-41 22 -61 65q-21 41 -21 95v469h-98v-487z" />
    <glyph glyph-name="V" unicode="V" horiz-adv-x="668" 
d="M334 105l-207 614h-107l261 -719h104l261 719h-109z" />
    <glyph glyph-name="W" unicode="W" horiz-adv-x="943" 
d="M305 0l168 596l164 -596h101l190 719h-108l-132 -586l-165 586h-105l-164 -586l-133 586h-105l187 -719h102z" />
    <glyph glyph-name="X" unicode="X" horiz-adv-x="668" 
d="M18 0h117l199 295l193 -295h121l-252 367l241 352h-116l-183 -276l-182 276h-123l242 -350z" />
    <glyph glyph-name="Y" unicode="Y" horiz-adv-x="668" 
d="M285 0h96v287l271 432h-113l-207 -346l-205 346h-113l271 -432v-287z" />
    <glyph glyph-name="Z" unicode="Z" horiz-adv-x="611" 
d="M23 0h565v86h-443l443 549v84h-533v-88h408l-440 -551v-80z" />
    <glyph glyph-name="bracketleft" unicode="[" horiz-adv-x="277" 
d="M63 -197h187v72h-109v775h109v73h-187v-920z" />
    <glyph glyph-name="backslash" unicode="\" horiz-adv-x="277" 
d="M227 -20h68l-246 756h-67z" />
    <glyph glyph-name="bracketright" unicode="]" horiz-adv-x="277" 
d="M27 -197h188v920h-188v-73h108v-775h-108v-72z" />
    <glyph glyph-name="asciicircum" unicode="^" horiz-adv-x="469" 
d="M482 264l-212 424h-71l-215 -424h79l171 343l172 -343h76z" />
    <glyph glyph-name="underscore" unicode="_" 
d="M557 -125v49h-557v-49h557z" />
    <glyph glyph-name="grave" unicode="`" horiz-adv-x="332" 
d="M143 594h68l-90 140h-107z" />
    <glyph glyph-name="a" unicode="a" 
d="M35 141l-2 -10q0 -35 23 -70q23 -36 61 -56q38 -21 84 -21q57 0 104 22q48 23 84 62q0 -78 82 -78q42 0 58 10v64l-33 -5q-15 2 -20 12t-5 31v298q0 48 -28 79t-76 45q-45 13 -99 13q-67 0 -114 -24q-48 -25 -70 -65q-23 -41 -23 -85h82q0 51 32 77q31 25 89 25
q121 0 121 -92q0 -28 -17 -42t-42 -19q-6 -1 -24 -3q-19 -3 -38 -3l-47 -3q-69 -11 -109 -34q-39 -23 -55 -56q-8 -17 -13 -36q-5 -18 -5 -36zM383 268v-94q0 -36 -26 -62q-26 -27 -64 -40q-45 -17 -74 -17q-84 0 -92 78q0 43 31 65t88 34l91 18q37 7 46 18z" />
    <glyph glyph-name="b" unicode="b" 
d="M141 0l2 64q47 -80 144 -80q82 0 134 43q53 44 75 111q22 66 22 139q0 75 -25 132q-25 58 -76 93q-50 35 -118 35q-56 0 -90 -19q-36 -19 -64 -61v262h-88v-719h84zM426 262q0 -89 -36 -145t-105 -56q-52 0 -98 41q-46 40 -46 134q0 54 11 106q11 49 42 83t89 34
q143 0 143 -197z" />
    <glyph glyph-name="c" unicode="c" horiz-adv-x="500" 
d="M33 305l-4 -53q0 -79 26 -136q25 -56 62 -84q20 -16 38 -23q15 -8 37 -15q34 -10 68 -10q61 0 107 24q45 22 74 69q28 45 36 107h-86q-7 -57 -45 -90q-37 -33 -86 -33q-56 0 -95 43q-20 22 -31 57q-11 36 -11 81q0 105 36 160q34 55 105 55q53 0 87 -27q35 -27 42 -82h84
q-7 71 -39 115q-31 41 -74 58q-42 16 -93 16q-63 0 -116 -29q-54 -30 -84 -81q-16 -24 -25 -57q-8 -29 -13 -65z" />
    <glyph glyph-name="d" unicode="d" 
d="M498 719h-90v-270q-26 39 -59 63q-34 25 -97 25q-68 0 -116 -33q-50 -35 -75 -94q-26 -61 -26 -133q0 -74 22 -139q21 -67 73 -110q53 -44 134 -44l28 3q19 3 41 12q23 9 46 28q24 19 37 45v-72h82v719zM125 262q0 81 28 138q29 59 115 59q142 0 142 -223q0 -93 -45 -134
q-47 -41 -99 -41q-69 0 -105 56t-36 145z" />
    <glyph glyph-name="e" unicode="e" 
d="M420 164q0 -17 -17 -43q-18 -27 -49 -43q-32 -17 -69 -17q-75 0 -113 44q-39 44 -39 127h383q0 117 -41 200q-17 34 -49 62q-31 26 -66 39q-34 12 -73 12q-50 0 -92 -19q-46 -21 -80 -56q-37 -38 -56 -96q-11 -32 -15 -62q-5 -35 -5 -66q0 -100 49 -170q32 -44 78 -68
q47 -24 107 -24q58 0 88 10q10 3 27 11l5 2q18 9 23 13q45 29 67 74q22 43 27 70h-90zM133 303q0 38 20 76q19 35 53 58q31 22 73 22q73 0 108 -44q17 -21 28 -51q9 -28 9 -61h-291z" />
    <glyph glyph-name="f" unicode="f" horiz-adv-x="277" 
d="M86 0h88v449h88v74h-88v69q0 33 15 45q14 11 40 11h33v79l-63 5q-51 0 -79 -28q-18 -16 -25 -39q-9 -24 -9 -60v-82h-72v-74h72v-449z" />
    <glyph glyph-name="g" unicode="g" 
d="M31 244q0 -56 17 -109q16 -50 46 -86q28 -34 67 -54t79 -20q93 0 160 72v-31q0 -85 -44 -124q-44 -40 -110 -40q-24 0 -42 7q-22 8 -37 18q-34 24 -34 59h-86q0 -62 35 -100t81 -51q48 -14 89 -14q102 0 169 58t67 194v504h-88v-64q-12 18 -26 32q-13 14 -30 24
q-34 24 -76 24q-54 0 -95 -19q-42 -19 -74 -60q-32 -38 -48 -94q-20 -63 -20 -126zM125 268q0 52 19 91q17 38 45 60q29 22 63 26q39 0 74 -20q34 -19 54 -62q20 -45 20 -103q0 -89 -37 -145t-92 -64l-15 -2q-34 0 -64 24t-48 73q-19 47 -19 122z" />
    <glyph glyph-name="h" unicode="h" 
d="M490 355q0 70 -27 110q-27 41 -68 56q-38 16 -88 16q-47 0 -71 -10q-25 -10 -39 -24l-45 -50v266h-88v-719h88v285q0 91 43 132q42 42 104 42q58 0 81 -29q22 -28 22 -88v-342h88v355z" />
    <glyph glyph-name="i" unicode="i" horiz-adv-x="223" 
d="M64 717v-100h90v100h-90zM64 521v-521h90v521h-90z" />
    <glyph glyph-name="j" unicode="j" horiz-adv-x="223" 
d="M154 523h-88v-591q0 -26 -5 -41q-6 -15 -18 -18q-11 -4 -41 -4h-20v-76l38 -4q84 0 109 40q25 38 25 93v601zM154 719h-88v-102h88v102z" />
    <glyph glyph-name="k" unicode="k" horiz-adv-x="500" 
d="M152 0v197l73 67l162 -264h113l-211 328l199 195h-113l-223 -222v418h-86v-719h86z" />
    <glyph glyph-name="l" unicode="l" horiz-adv-x="223" 
d="M154 719h-88v-719h88v719z" />
    <glyph glyph-name="m" unicode="m" horiz-adv-x="832" 
d="M64 0h88v285q0 63 23 103t54 56q32 15 62 15q44 0 63 -28t19 -70v-361h88v318q0 38 16 68q15 33 44 53t63 20q98 0 98 -121v-338h88v361q0 67 -27 107t-64 55q-40 14 -72 14q-56 0 -88 -19t-72 -65q-18 34 -48 59q-29 25 -92 25q-95 0 -161 -88v74h-82v-523z" />
    <glyph glyph-name="n" unicode="n" 
d="M64 0h88v299q0 45 18 82q18 36 53 58q35 20 76 20q59 0 81 -36q22 -37 22 -99v-324h88v355q0 57 -21 99q-23 42 -62 62q-40 21 -96 21q-46 0 -81 -18q-38 -21 -56 -40q-21 -21 -26 -32v76h-84v-523z" />
    <glyph glyph-name="o" unicode="o" 
d="M35 262q0 -68 26 -134q25 -64 82 -104q55 -40 134 -40q80 0 135 40t82 104q27 65 27 134q0 71 -27 134q-27 62 -82 102q-55 39 -135 39q-77 0 -133 -39q-57 -41 -82 -102q-27 -63 -27 -134zM125 262q0 73 35 137q35 62 117 62q58 0 92 -31t48 -77q13 -45 13 -91
q0 -45 -13 -90q-13 -46 -48 -78q-34 -33 -92 -33q-56 0 -91 33q-33 30 -47 78q-14 47 -14 90z" />
    <glyph glyph-name="p" unicode="p" 
d="M57 -207h89v264q33 -42 65 -58q33 -17 80 -17q71 0 123 42q53 42 78 108q26 66 26 132q0 68 -24 132q-26 64 -75 104q-50 41 -118 41q-39 0 -69 -13q-32 -14 -56 -35q-24 -23 -35 -46v76h-84v-730zM141 240q0 58 14 109q13 49 46 80q32 30 80 30q70 0 106 -45
q18 -21 29 -57q10 -33 10 -82q0 -63 -17 -113q-16 -48 -49 -75q-32 -26 -71 -26q-61 0 -103 43q-23 23 -33 56q-12 35 -12 80z" />
    <glyph glyph-name="q" unicode="q" 
d="M494 523h-84l-2 -74q-26 39 -59 63q-34 25 -97 25q-68 0 -116 -33q-50 -35 -75 -94q-26 -61 -26 -133q0 -74 22 -139q21 -67 73 -110q53 -44 134 -44q104 0 142 71v-262h88v730zM410 236q0 -93 -45 -134q-47 -41 -99 -41q-69 0 -105 56t-36 145q0 81 28 138q29 59 115 59
q142 0 142 -223z" />
    <glyph glyph-name="r" unicode="r" horiz-adv-x="332" 
d="M76 0h88v313q0 60 47 95t121 35v92q-68 0 -105 -25q-36 -24 -67 -76v89h-84v-523z" />
    <glyph glyph-name="s" unicode="s" horiz-adv-x="500" 
d="M447 373q0 28 -13 64q-14 38 -59 68q-47 32 -129 32q-53 0 -98 -18q-47 -18 -72 -55q-27 -37 -27 -93q0 -42 21 -69t54 -42t70 -23l77 -18q59 -16 82 -30q22 -13 22 -46q0 -40 -34 -61t-85 -21q-82 0 -109 32q-30 33 -30 75h-86q0 -26 8 -55l7 -21l3 -9q14 -38 64 -68
q49 -31 143 -31q61 0 108 22q47 21 72 60q27 39 27 92q0 42 -21 70q-23 28 -58 44q-29 14 -40 17q-4 1 -10 3q-19 5 -31 8l-74 18q-45 10 -58 16q-19 9 -29 20q-9 12 -9 33q0 30 20 47q19 16 42 22q30 5 43 5q123 0 123 -88h86z" />
    <glyph glyph-name="t" unicode="t" horiz-adv-x="277" 
d="M78 63q5 -43 33 -63q29 -20 77 -20l64 4v79l-45 -4q-16 0 -27 11t-14 39v332h86v86h-86v143h-88v-143h-70v-86h70v-378z" />
    <glyph glyph-name="u" unicode="u" 
d="M70 133q0 -68 41 -112t108 -44q49 0 98 21q48 19 83 57v-55h88v527h-88v-316q0 -63 -40 -106t-92 -54l-24 -2q-35 0 -61 26q-27 26 -27 73v379h-86v-394z" />
    <glyph glyph-name="v" unicode="v" horiz-adv-x="500" 
d="M199 0h94l199 523h-96l-150 -429l-137 429h-101z" />
    <glyph glyph-name="w" unicode="w" horiz-adv-x="723" 
d="M256 0l103 404l106 -404h92l152 523h-88l-105 -412l-106 412h-97l-104 -412l-100 412h-95l150 -523h92z" />
    <glyph glyph-name="x" unicode="x" horiz-adv-x="500" 
d="M194 270l-185 -270h112l127 197l129 -197h113l-185 268l177 255h-107l-121 -185l-121 185h-114z" />
    <glyph glyph-name="y" unicode="y" horiz-adv-x="500" 
d="M252 96l-143 427h-99l195 -539l-35 -83q-10 -19 -22 -28q-13 -8 -37 -8q-31 0 -52 8v-80q30 -8 37 -8q47 0 71 6q22 6 42 26q18 18 37 61q22 45 55 132q14 36 39 102l14 37q6 16 18 50q27 75 44 121q24 64 72 203h-95z" />
    <glyph glyph-name="z" unicode="z" horiz-adv-x="500" 
d="M459 451v72h-404l-1 -74h292l-316 -381v-68h439v72h-323z" />
    <glyph glyph-name="braceleft" unicode="{" horiz-adv-x="334" 
d="M123 -80q0 -48 31 -82q30 -35 71 -35h66v66h-45q-21 0 -33 21t-12 53v172q0 50 -23 91q-24 40 -67 58q27 7 47 31t32 54q11 31 11 59v174q0 28 14 51t33 23h43v65l-19 1l-22 1q-127 0 -127 -121v-182q0 -45 -20 -85q-19 -40 -62 -40v-61q23 0 42 -19q20 -17 30 -46
t10 -67v-182z" />
    <glyph glyph-name="bar" unicode="|" horiz-adv-x="260" 
d="M94 -20h72v756h-72v-756z" />
    <glyph glyph-name="braceright" unicode="}" horiz-adv-x="334" 
d="M291 293q-35 0 -57 37q-23 38 -23 90v174q0 38 -14 68q-13 28 -38 45q-25 16 -52 16h-66v-67h45q45 0 45 -82v-170q0 -32 9 -55q8 -22 24 -42q29 -35 55 -45q-12 -3 -34 -19q-18 -14 -35 -46q-9 -16 -14 -37q-5 -20 -5 -41v-168q0 -82 -45 -82h-45v-66h66q41 0 73 35
q31 34 31 94v172q0 33 11 66q11 32 30 48q18 16 39 16v59z" />
    <glyph glyph-name="asciitilde" unicode="~" horiz-adv-x="584" 
d="M486 326q-23 -37 -42 -53q-19 -19 -46 -19q-28 0 -68 17l-76 34q-40 17 -68 17q-81 0 -125 -86l35 -56q18 34 36 52q20 20 48 20q26 0 53 -8l58 -26q34 -18 59 -26q24 -8 48 -8q71 0 125 86z" />
    <glyph glyph-name="exclamdown" unicode="&#xa1;" horiz-adv-x="332" 
d="M117 420h98v103h-98v-103zM141 352l-24 -311v-236h98v236l-24 311h-50z" />
    <glyph glyph-name="cent" unicode="&#xa2;" 
d="M510 344q-9 82 -49 122q-41 41 -82 57l25 100h-39l-23 -88q-24 6 -51 6q-73 0 -141 -47q-99 -73 -99 -250q0 -92 38 -154q38 -63 100 -92l-35 -113h41l32 103q54 -8 70 -8q56 0 103 28q48 28 77 73q30 46 37 101h-86q-12 -57 -49 -91q-41 -38 -92 -38l-39 8l111 386
q47 -22 67 -103h84zM211 78q-32 19 -52 67t-20 99t15 102q14 51 48 85q33 34 85 34q20 0 33 -6z" />
    <glyph glyph-name="sterling" unicode="&#xa3;" 
d="M203 379q-51 92 -51 141q0 22 14 52q13 28 46 50q33 21 83 21q41 0 72 -18q32 -19 49 -53q18 -34 18 -74v-8h87v14q0 52 -23 104q-22 50 -72 81q-49 30 -121 30q-88 0 -144 -32q-56 -31 -79 -78q-11 -24 -17 -47q-6 -25 -6 -48q0 -31 11 -62l32 -73h-69v-63h106
q19 -38 19 -72q0 -23 -9 -53q-11 -31 -37 -66q-27 -35 -75 -68l49 -69q63 39 117 39q27 0 69 -11l79 -21q42 -11 69 -11q54 0 119 47l-41 67q-16 -18 -33 -25q-18 -9 -39 -9q-6 0 -18 2h-2q-6 1 -13 3q-5 1 -6 1l-47 13l-51 13q-17 4 -43 4q-61 0 -123 -34l-2 -2
q58 41 89 90q32 50 32 96q0 37 -10 66h139v63h-168z" />
    <glyph glyph-name="currency" unicode="&#xa4;" 
d="M480 604l-58 -57q-26 25 -63 38q-38 13 -82 13t-80 -13q-37 -13 -64 -38l-57 57l-49 -49l55 -55q-49 -58 -49 -148q0 -89 49 -153l-53 -56l45 -45l55 58q31 -28 68 -40q40 -14 80 -14q92 0 149 54l56 -58l45 45l-54 56q50 65 50 153q0 42 -14 82q-13 39 -36 66l54 55z
M105 352q0 45 23 86q22 40 64 65q41 24 85 24q47 0 87 -24q39 -24 62 -65t23 -86q0 -49 -23 -90t-62 -65q-40 -25 -87 -25q-49 0 -86 25q-40 24 -63 66q-23 41 -23 89z" />
    <glyph glyph-name="yen" unicode="&#xa5;" 
d="M41 326h193v-84h-193v-58h193v-184h88v184h194v58h-194v84h194v57h-157l194 305h-100l-176 -295l-175 295h-100l193 -305h-154v-57z" />
    <glyph glyph-name="brokenbar" unicode="&#xa6;" horiz-adv-x="330" 
d="M94 -20h72v756h-72v-756z" />
    <glyph glyph-name="section" unicode="&#xa7;" 
d="M459 555q0 101 -55 141t-129 40q-61 0 -101 -25t-59 -64q-19 -38 -19 -81q0 -30 11 -50q10 -20 36 -49q-47 -26 -74 -62q-26 -35 -26 -96q0 -29 14 -63q14 -35 50 -60l211 -139q27 -18 42 -37q13 -16 13 -43q0 -47 -32 -64q-33 -18 -73 -18q-58 0 -78 35t-20 76h-88
q0 -94 54 -140q53 -47 143 -47q44 0 87 20t69 55q26 37 26 85q0 37 -13 62q-5 9 -15 25q-3 3 -4 5q-12 14 -21 23q48 30 76 67q28 35 28 93q0 56 -29 93q-28 35 -81 67l-146 86q-39 23 -54 44q-18 20 -18 46q0 42 28 61t63 19q61 0 79 -32q9 -16 16 -36q5 -20 5 -37h84z
M367 320q61 -39 61 -95q0 -34 -17 -57q-20 -23 -52 -45l-94 62l-95 61q-45 29 -45 84q0 63 68 98l67 -42l59 -37z" />
    <glyph glyph-name="dieresis" unicode="&#xa8;" horiz-adv-x="332" 
d="M131 705h-92v-101h92v101zM293 705h-92v-101h92v101z" />
    <glyph glyph-name="copyright" unicode="&#xa9;" horiz-adv-x="736" 
d="M369 -20q101 0 190 50t141 135t52 194q0 79 -30 149q-32 71 -83 121q-55 52 -122 79q-69 28 -148 28q-78 0 -146 -27q-70 -29 -123 -79q-55 -52 -85 -122q-31 -69 -31 -149q0 -79 31 -148q30 -70 84 -123q51 -51 123 -80q68 -28 147 -28zM61 359q0 34 6 65q5 27 17 59
q23 58 66 101t100 67q57 23 119 23q63 0 120 -24q58 -24 99 -67q42 -45 65 -101q23 -60 23 -123q0 -87 -40 -160q-41 -74 -112 -115t-155 -41t-155 41q-71 40 -112 114t-41 161zM500 289q-6 -43 -38 -69q-31 -27 -79 -27q-67 0 -107 49t-40 119q0 75 37 119q38 45 106 45
q47 0 80 -24q32 -24 41 -65h68q-6 48 -32 85q-27 35 -68 53q-40 18 -89 18q-102 0 -160 -64q-59 -65 -59 -167q0 -52 16 -91q15 -43 44 -75q32 -32 72 -50q41 -18 91 -18q68 0 120 44t65 118h-68z" />
    <glyph glyph-name="ordfeminine" unicode="&#xaa;" horiz-adv-x="369" 
d="M346 453l-22 -4q-15 3 -15 22v177q0 53 -42 71q-46 17 -85 17q-141 0 -141 -105h53q6 55 78 55q37 0 57 -11q19 -10 19 -29q0 -20 -10 -30q-11 -11 -28 -14l-42 -4q-38 0 -70 -9q-32 -11 -53 -33q-22 -22 -22 -60q0 -40 30 -66q29 -26 78 -26q41 0 72 14q31 17 51 37
q0 -23 13 -36q14 -15 47 -15l10 1l11 2l11 3v43zM145 457q-59 0 -59 49q0 36 76 45t86 19v-39q0 -21 -14 -38q-15 -17 -38 -26q-21 -10 -51 -10zM35 352v-49h295v49h-295z" />
    <glyph glyph-name="guillemotleft" unicode="&#xab;" 
d="M254 195l-106 82l106 80v88l-158 -123v-92l158 -123v88zM459 195l-105 82l105 80v88l-158 -123v-92l158 -123v88z" />
    <glyph glyph-name="logicalnot" unicode="&#xac;" horiz-adv-x="584" 
d="M471 107h74v284h-506v-75h432v-209z" />
    <glyph glyph-name="registered" unicode="&#xae;" horiz-adv-x="736" 
d="M369 -20q101 0 190 50t141 135t52 194q0 79 -30 149q-32 71 -83 121q-55 52 -122 79q-69 28 -148 28q-78 0 -146 -27q-70 -29 -123 -79q-55 -52 -85 -122q-31 -69 -31 -149q0 -79 31 -148q30 -70 84 -123q51 -51 123 -80q68 -28 147 -28zM61 359q0 34 6 65q5 27 17 59
q23 58 66 101t100 67q57 23 119 23q63 0 120 -24q58 -24 99 -67q42 -45 65 -101q23 -60 23 -123q0 -87 -40 -160q-41 -74 -112 -115t-155 -41t-155 41q-71 40 -112 114t-41 161zM289 330h76l115 -189h75l-123 191q50 8 81 36q30 30 30 85q0 64 -38 94q-38 29 -114 29h-168
v-435h66v189zM289 385v136h90q96 0 96 -64q0 -45 -28 -58q-30 -14 -78 -14h-80z" />
    <glyph glyph-name="degree" unicode="&#xb0;" horiz-adv-x="284" 
d="M43 813q0 -24 10 -43t30 -33t50 -14t50 14t30 33t10 43q0 25 -10 44q-10 20 -30 33q-19 13 -50 13t-50 -13q-18 -12 -29 -33q-11 -20 -11 -44zM76 813q0 25 14 45t43 20q21 0 34 -9q13 -11 17 -27q5 -18 5 -29q0 -10 -5 -28q-4 -15 -18 -26t-33 -11q-12 0 -20 3
q-7 3 -14 8q-14 11 -18 27q-5 17 -5 27z" />
    <glyph glyph-name="plusminus" unicode="&#xb1;" horiz-adv-x="584" 
d="M256 344h-217v-73h217v-162h72v162h217v73h-217v162h-72v-162zM39 0h506v72h-506v-72z" />
    <glyph glyph-name="twosuperior" unicode="&#xb2;" horiz-adv-x="396" 
d="M256 719h-98v-719h98v719zM392 782l-163 138h-55l-166 -138h61l132 112l132 -112h59z" />
    <glyph glyph-name="threesuperior" unicode="&#xb3;" horiz-adv-x="686" 
d="M78 232q0 -76 38 -135t101 -87q63 -30 133 -30q87 0 154 33q67 31 105 91q36 59 36 132v483h-98v-471q0 -52 -23 -95q-22 -41 -66 -64t-99 -23q-59 0 -101 24q-41 22 -61 65q-21 41 -21 95v469h-98v-487zM548 788l-163 138h-55l-166 -138h61l132 112l133 -112h58z" />
    <glyph glyph-name="acute" unicode="&#xb4;" horiz-adv-x="948" 
d="M305 0l168 596l164 -596h101l190 719h-108l-132 -586l-165 586h-105l-164 -586l-133 586h-105l187 -719h102zM462 880l66 -92h79l-98 140h-94l-99 -140h80z" />
    <glyph glyph-name="mu" unicode="&#xb5;" horiz-adv-x="674" 
d="M285 0h96v287l271 432h-113l-207 -346l-205 346h-113l271 -432v-287zM340 880l66 -92h79l-98 140h-94l-99 -140h80z" />
    <glyph glyph-name="paragraph" unicode="&#xb6;" horiz-adv-x="418" 
d="M162 517v-521h90v521h-90zM402 596l-163 138h-55l-166 -138h61l132 112l133 -112h58z" />
    <glyph glyph-name="periodcentered" unicode="&#xb7;" horiz-adv-x="558" 
d="M70 133q0 -68 41 -112t108 -44q49 0 98 21q48 19 83 57v-55h88v527h-88v-316q0 -63 -40 -106t-92 -54l-24 -2q-35 0 -61 26q-27 26 -27 73v379h-86v-394zM472 594l-163 138h-55l-166 -138h61l132 112l133 -112h58z" />
    <glyph glyph-name="periodcentered" unicode="&#x2219;" horiz-adv-x="558" 
d="M70 133q0 -68 41 -112t108 -44q49 0 98 21q48 19 83 57v-55h88v527h-88v-316q0 -63 -40 -106t-92 -54l-24 -2q-35 0 -61 26q-27 26 -27 73v379h-86v-394zM472 594l-163 138h-55l-166 -138h61l132 112l133 -112h58z" />
    <glyph glyph-name="cedilla" unicode="&#xb8;" horiz-adv-x="740" 
d="M256 0l103 404l106 -404h92l152 523h-88l-105 -412l-106 412h-97l-104 -412l-100 412h-95l150 -523h92zM354 686l66 -92h79l-98 140h-94l-99 -140h80z" />
    <glyph glyph-name="onesuperior" unicode="&#xb9;" horiz-adv-x="524" 
d="M252 96l-143 427h-99l195 -539l-35 -83q-10 -19 -22 -28q-13 -8 -37 -8q-31 0 -52 8v-80q30 -8 37 -8q47 0 71 6q22 6 42 26q18 18 37 61q22 45 55 132q14 36 39 102l14 37q6 16 18 50q27 75 44 121q24 64 72 203h-95zM242 690l66 -92h79l-98 140h-94l-99 -140h80z" />
    <glyph glyph-name="ordmasculine" unicode="&#xba;" horiz-adv-x="365" 
d="M340 570q0 92 -46 129t-112 37t-112 -37q-47 -38 -47 -129q0 -88 47 -127t112 -39q66 0 112 39t46 127zM273 570q0 -44 -19 -78q-20 -35 -72 -35q-50 0 -70 35t-20 78q0 42 20 80q20 36 70 36q52 0 72 -35q19 -34 19 -81zM35 352v-49h295v49h-295z" />
    <glyph glyph-name="guillemotright" unicode="&#xbb;" 
d="M254 230v92l-158 123v-88l105 -80l-105 -82v-88zM459 230v92l-158 123v-88l105 -80l-105 -82v-88z" />
    <glyph glyph-name="onequarter" unicode="&#xbc;" horiz-adv-x="834" 
d="M418 94h207v-94h64v94h67v56h-67v272h-64l-207 -268v-60zM625 150h-145l145 188v-188zM652 703h-56l-131 -211l-311 -512h57l129 211zM180 580v-299h68v422h-53q-8 -33 -21 -49q-16 -18 -35 -22q-18 -5 -33 -7q-16 -2 -34 -2v-43h108z" />
    <glyph glyph-name="onehalf" unicode="&#xbd;" horiz-adv-x="834" 
d="M617 703h-56l-131 -211l-313 -512h57l131 211zM150 576v-295h71v422h-55q-10 -33 -24 -50q-13 -16 -33 -21q-16 -5 -32 -7t-34 -2v-47h107zM529 270q0 17 6 33q4 13 14 32q16 28 70 28q46 0 65 -19t19 -47q0 -26 -10 -42q-9 -15 -25 -27l-51 -29l-58 -33q-33 -17 -55 -39
q-21 -21 -35 -53q-9 -21 -12 -36q-4 -15 -4 -38h320v61h-244q22 38 80 70l45 23q60 30 90 59q29 32 29 82q0 40 -19 68q-20 30 -53 43q-30 16 -74 16q-59 0 -108 -31q-50 -32 -50 -121h60z" />
    <glyph glyph-name="threequarters" unicode="&#xbe;" horiz-adv-x="834" 
d="M473 94h207v-94h62v94h69v56h-69v272h-62l-207 -268v-60zM535 150l145 188v-188h-145zM713 703h-59l-129 -211l-312 -512h57l130 211zM45 410q0 -45 18 -75q17 -30 50 -46q34 -19 84 -19q59 0 95 19q36 18 55 50q18 32 18 67q0 76 -76 98q23 8 41 30q18 23 18 58
q0 49 -37 80t-104 31q-55 0 -90 -20q-34 -19 -48 -52q-14 -34 -14 -67h62q0 81 80 81q47 0 63 -18q17 -18 17 -39q0 -67 -82 -67h-27v-50h23q46 0 75 -13q29 -14 29 -60q0 -35 -26 -52q-25 -18 -70 -18q-50 0 -67 23q-9 11 -14 27q-5 15 -5 32h-68z" />
    <glyph glyph-name="questiondown" unicode="&#xbf;" horiz-adv-x="611" 
d="M439 33q0 -158 -134 -158q-46 0 -71 19q-28 18 -38 45q-12 25 -12 49q0 28 6 46q7 18 21 35l53 58q27 27 43 46q3 5 8 11q5 5 8 10q18 25 27 59q9 33 9 89h-88q0 -48 -7 -75q-7 -28 -26 -51q-19 -24 -54 -56q-56 -56 -73 -85q-21 -34 -21 -81q0 -61 29 -105
q30 -45 79 -67q51 -23 105 -23q89 0 144 45q35 26 51 56q10 20 14 31q6 15 9 33l1 7q3 17 4 25q1 9 1 37h-88zM264 422h97v103h-97v-103z" />
    <glyph glyph-name="Agrave" unicode="&#xc0;" horiz-adv-x="668" 
d="M14 0h99l75 209h289l70 -209h107l-259 719h-112zM219 295l115 318l107 -318h-222zM311 787h68l-90 140h-107z" />
    <glyph glyph-name="Aacute" unicode="&#xc1;" horiz-adv-x="668" 
d="M14 0h99l75 209h289l70 -209h107l-259 719h-112zM219 295l115 318l107 -318h-222zM504 927h-107l-90 -140h68z" />
    <glyph glyph-name="Acircumflex" unicode="&#xc2;" horiz-adv-x="668" 
d="M14 0h99l75 209h289l70 -209h107l-259 719h-112zM219 295l115 318l107 -318h-222zM334 879l66 -92h79l-98 140h-94l-99 -140h80z" />
    <glyph glyph-name="Atilde" unicode="&#xc3;" horiz-adv-x="668" 
d="M14 0h99l75 209h289l70 -209h107l-259 719h-112zM219 295l115 318l107 -318h-222zM473 916q-4 -21 -14 -34t-37 -13q-22 3 -52 16l-49 16q-17 5 -35 5q-90 0 -104 -108h47q14 45 47 45h14q2 -1 6 -1q9 -3 14 -4l41 -14l40 -14q12 -4 31 -4q43 0 69 32q27 33 31 78h-49z
" />
    <glyph glyph-name="Adieresis" unicode="&#xc4;" horiz-adv-x="668" 
d="M14 0h99l75 209h289l70 -209h107l-259 719h-112zM219 295l115 318l107 -318h-222zM299 898h-92v-101h92v101zM461 898h-92v-101h92v101z" />
    <glyph glyph-name="Aring" unicode="&#xc5;" horiz-adv-x="668" 
d="M14 0h99l75 209h289l70 -209h107l-259 719h-112zM219 295l115 318l107 -318h-222zM334 949q-40 0 -66 -26t-26 -66q0 -26 12 -47t33 -33t47 -12q40 0 66 26t26 66t-26 66t-66 26zM283 857q0 21 15 37q13 16 36 16q22 0 38 -15q15 -16 15 -38t-15 -37q-16 -16 -38 -16
q-21 0 -36 16q-15 15 -15 37z" />
    <glyph glyph-name="AE" unicode="&#xc6;" horiz-adv-x="1000" 
d="M191 209h266v-209h494v86h-396v240h355v86h-355v219h388v88h-132h-512l-84 -207l-207 -512h105zM457 295h-230l132 336h98v-336z" />
    <glyph glyph-name="Ccedilla" unicode="&#xc7;" horiz-adv-x="723" 
d="M324 -18l-51 -68l18 -19q25 7 39 7q15 0 31 -9t16 -30q0 -23 -17 -34q-18 -9 -38 -9q-28 0 -66 16l-16 -39q53 -24 96 -24q54 0 85 27q32 26 32 67q0 30 -19 52t-65 22l-31 -4l35 43q17 0 38 3q25 4 40 7q46 10 91 37q47 29 87 87q40 60 53 150h-96q-13 -75 -48 -120
q-34 -44 -75 -61q-42 -17 -82 -17q-67 0 -110 22q-46 21 -74 63q-29 41 -41 94q-13 51 -13 120q0 94 31 157q32 64 86 96q55 32 119 32q66 0 125 -32q58 -33 76 -116h94q-8 64 -42 116q-34 51 -101 85q-66 33 -152 33q-76 0 -139 -26q-63 -27 -107 -77t-67 -120
q-23 -72 -23 -150q0 -96 22 -162q22 -67 63 -114t88 -72q48 -26 108 -33z" />
    <glyph glyph-name="Egrave" unicode="&#xc8;" horiz-adv-x="668" 
d="M615 86h-433v240h394v86h-394v219h427v88h-523v-719h529v86zM309 793h68l-90 140h-107z" />
    <glyph glyph-name="Eacute" unicode="&#xc9;" horiz-adv-x="668" 
d="M615 86h-433v240h394v86h-394v219h427v88h-523v-719h529v86zM484 933h-107l-90 -140h68z" />
    <glyph glyph-name="Ecircumflex" unicode="&#xca;" horiz-adv-x="668" 
d="M615 86h-433v240h394v86h-394v219h427v88h-523v-719h529v86zM332 885l66 -92h79l-98 140h-94l-99 -140h80z" />
    <glyph glyph-name="Edieresis" unicode="&#xcb;" horiz-adv-x="668" 
d="M615 86h-433v240h394v86h-394v219h427v88h-523v-719h529v86zM297 904h-92v-101h92v101zM459 904h-92v-101h92v101z" />
    <glyph glyph-name="Igrave" unicode="&#xcc;" horiz-adv-x="277" 
d="M188 719h-98v-719h98v719zM110 793h68l-90 140h-107z" />
    <glyph glyph-name="Iacute" unicode="&#xcd;" horiz-adv-x="277" 
d="M188 719h-98v-719h98v719zM285 933h-107l-90 -140h68z" />
    <glyph glyph-name="Icircumflex" unicode="&#xce;" horiz-adv-x="277" 
d="M188 719h-98v-719h98v719zM133 885l66 -92h79l-98 140h-94l-99 -140h80z" />
    <glyph glyph-name="Idieresis" unicode="&#xcf;" horiz-adv-x="277" 
d="M188 719h-98v-719h98v719zM98 904h-92v-101h92v101zM260 904h-92v-101h92v101z" />
    <glyph glyph-name="Eth" unicode="&#xd0;" horiz-adv-x="723" 
d="M0 326h80v-326h287q130 0 199 71q69 72 88 154q11 44 15 79q5 38 5 65q0 78 -21 142q-21 65 -60 113q-40 45 -95 70q-57 26 -127 26h-291v-308h-80v-86zM369 412h-191v223h181q100 0 158 -70q57 -70 57 -202q0 -91 -25 -153q-26 -64 -73 -95q-48 -33 -111 -33h-187v244
h191v86z" />
    <glyph glyph-name="Ntilde" unicode="&#xd1;" horiz-adv-x="723" 
d="M553 137l-362 582h-115v-719h94v580l367 -580h109v719h-93v-582zM471 907q-4 -21 -14 -34t-37 -13q-22 3 -52 16l-49 16q-17 5 -35 5q-90 0 -104 -108h47q14 45 47 45h14q2 -1 6 -1q9 -3 14 -4l41 -14l40 -14q12 -4 31 -4q43 0 69 32q27 33 31 78h-49z" />
    <glyph glyph-name="Ograve" unicode="&#xd2;" horiz-adv-x="777" 
d="M738 359q0 64 -18 128t-59 122q-40 57 -109 92q-68 35 -163 35q-94 0 -163 -35t-110 -92q-43 -60 -59 -122q-18 -64 -18 -128q0 -63 18 -128q18 -63 59 -123q41 -59 109 -93q69 -35 164 -35q94 0 164 35q69 35 109 93q39 56 58 122q18 65 18 129zM639 359q0 -83 -30 -151
q-30 -67 -86 -105q-56 -37 -134 -37t-133 37q-57 38 -87 105q-30 68 -30 151q0 84 30 150t86 104q55 37 134 37q78 0 134 -37q57 -38 86 -103q30 -67 30 -151zM409 778h68l-90 140h-107z" />
    <glyph glyph-name="Oacute" unicode="&#xd3;" horiz-adv-x="777" 
d="M738 359q0 64 -18 128t-59 122q-40 57 -109 92q-68 35 -163 35q-94 0 -163 -35t-110 -92q-43 -60 -59 -122q-18 -64 -18 -128q0 -63 18 -128q18 -63 59 -123q41 -59 109 -93q69 -35 164 -35q94 0 164 35q69 35 109 93q39 56 58 122q18 65 18 129zM639 359q0 -83 -30 -151
q-30 -67 -86 -105q-56 -37 -134 -37t-133 37q-57 38 -87 105q-30 68 -30 151q0 84 30 150t86 104q55 37 134 37q78 0 134 -37q57 -38 86 -103q30 -67 30 -151zM517 918h-107l-90 -140h68z" />
    <glyph glyph-name="Ocircumflex" unicode="&#xd4;" horiz-adv-x="777" 
d="M738 359q0 64 -18 128t-59 122q-40 57 -109 92q-68 35 -163 35q-94 0 -163 -35t-110 -92q-43 -60 -59 -122q-18 -64 -18 -128q0 -63 18 -128q18 -63 59 -123q41 -59 109 -93q69 -35 164 -35q94 0 164 35q69 35 109 93q39 56 58 122q18 65 18 129zM639 359q0 -83 -30 -151
q-30 -67 -86 -105q-56 -37 -134 -37t-133 37q-57 38 -87 105q-30 68 -30 151q0 84 30 150t86 104q55 37 134 37q78 0 134 -37q57 -38 86 -103q30 -67 30 -151zM398 870l66 -92h79l-98 140h-94l-99 -140h80z" />
    <glyph glyph-name="Otilde" unicode="&#xd5;" horiz-adv-x="777" 
d="M738 359q0 64 -18 128t-59 122q-40 57 -109 92q-68 35 -163 35q-94 0 -163 -35t-110 -92q-43 -60 -59 -122q-18 -64 -18 -128q0 -63 18 -128q18 -63 59 -123q41 -59 109 -93q69 -35 164 -35q94 0 164 35q69 35 109 93q39 56 58 122q18 65 18 129zM639 359q0 -83 -30 -151
q-30 -67 -86 -105q-56 -37 -134 -37t-133 37q-57 38 -87 105q-30 68 -30 151q0 84 30 150t86 104q55 37 134 37q78 0 134 -37q57 -38 86 -103q30 -67 30 -151zM519 907q-4 -21 -14 -34t-37 -13q-22 3 -52 16l-49 16q-17 5 -35 5q-90 0 -104 -108h47q14 45 47 45h14
q2 -1 6 -1q9 -3 14 -4l41 -14l40 -14q12 -4 31 -4q43 0 69 32q27 33 31 78h-49z" />
    <glyph glyph-name="Odieresis" unicode="&#xd6;" horiz-adv-x="777" 
d="M738 359q0 64 -18 128t-59 122q-40 57 -109 92q-68 35 -163 35q-94 0 -163 -35t-110 -92q-43 -60 -59 -122q-18 -64 -18 -128q0 -63 18 -128q18 -63 59 -123q41 -59 109 -93q69 -35 164 -35q94 0 164 35q69 35 109 93q39 56 58 122q18 65 18 129zM639 359q0 -83 -30 -151
q-30 -67 -86 -105q-56 -37 -134 -37t-133 37q-57 38 -87 105q-30 68 -30 151q0 84 30 150t86 104q55 37 134 37q78 0 134 -37q57 -38 86 -103q30 -67 30 -151zM363 889h-92v-101h92v101zM525 889h-92v-101h92v101z" />
    <glyph glyph-name="multiply" unicode="&#xd7;" horiz-adv-x="580" 
d="M239 361l-153 -154l53 -52l153 154l153 -151l50 51l-153 151l153 155l-53 52l-153 -155l-153 151l-50 -51z" />
    <glyph glyph-name="Oslash" unicode="&#xd8;" horiz-adv-x="777" 
d="M740 707l-31 29l-82 -88q-88 88 -238 88q-94 0 -163 -35t-110 -92q-43 -60 -59 -122q-18 -64 -18 -128t21 -135q19 -70 63 -126l-82 -90l31 -28l80 86q95 -86 237 -86q94 0 164 35q69 35 109 93q39 56 58 122q18 65 18 129t-20 135q-20 68 -62 121zM590 543
q49 -76 49 -184q0 -83 -30 -151q-30 -67 -86 -105q-56 -37 -134 -37q-107 0 -172 71zM189 170q-50 77 -50 189q0 84 30 150t86 104q55 37 134 37q106 0 175 -72z" />
    <glyph glyph-name="Ugrave" unicode="&#xd9;" horiz-adv-x="723" 
d="M78 232q0 -76 38 -135t101 -87q63 -30 133 -30q87 0 154 33q67 31 105 91q36 59 36 132v483h-98v-471q0 -52 -23 -95q-22 -41 -66 -64t-99 -23q-59 0 -101 24q-41 22 -61 65q-21 41 -21 95v469h-98v-487zM342 793h68l-90 140h-107z" />
    <glyph glyph-name="Uacute" unicode="&#xda;" horiz-adv-x="723" 
d="M78 232q0 -76 38 -135t101 -87q63 -30 133 -30q87 0 154 33q67 31 105 91q36 59 36 132v483h-98v-471q0 -52 -23 -95q-22 -41 -66 -64t-99 -23q-59 0 -101 24q-41 22 -61 65q-21 41 -21 95v469h-98v-487zM517 933h-107l-90 -140h68z" />
    <glyph glyph-name="Ucircumflex" unicode="&#xdb;" horiz-adv-x="723" 
d="M78 232q0 -76 38 -135t101 -87q63 -30 133 -30q87 0 154 33q67 31 105 91q36 59 36 132v483h-98v-471q0 -52 -23 -95q-22 -41 -66 -64t-99 -23q-59 0 -101 24q-41 22 -61 65q-21 41 -21 95v469h-98v-487zM365 885l66 -92h79l-98 140h-94l-99 -140h80z" />
    <glyph glyph-name="Udieresis" unicode="&#xdc;" horiz-adv-x="723" 
d="M78 232q0 -76 38 -135t101 -87q63 -30 133 -30q87 0 154 33q67 31 105 91q36 59 36 132v483h-98v-471q0 -52 -23 -95q-22 -41 -66 -64t-99 -23q-59 0 -101 24q-41 22 -61 65q-21 41 -21 95v469h-98v-487zM330 904h-92v-101h92v101zM492 904h-92v-101h92v101z" />
    <glyph glyph-name="Yacute" unicode="&#xdd;" horiz-adv-x="668" 
d="M285 0h96v287l271 432h-113l-207 -346l-205 346h-113l271 -432v-287zM517 933h-107l-90 -140h68z" />
    <glyph glyph-name="Thorn" unicode="&#xde;" horiz-adv-x="668" 
d="M86 0h96v184h226q72 0 121 32q48 31 70 79q22 46 22 101q0 58 -26 105q-12 23 -32 43q-18 18 -42 30q-50 26 -113 26h-226v119h-96v-719zM182 516h197q142 0 142 -120q0 -130 -146 -130h-193v250z" />
    <glyph glyph-name="germandbls" unicode="&#xdf;" horiz-adv-x="611" 
d="M66 0h88v510q0 24 3 43t10 34q12 31 44 48q33 17 86 17q76 0 114 -31q38 -32 38 -82q0 -49 -36 -81q-38 -32 -120 -32l-11 1l-12 1v-78q11 4 39 4q171 0 171 -141q0 -74 -44 -112t-127 -38l-43 3v-74q30 -8 52 -8q73 0 130 27t90 85q32 59 32 142q0 29 -13 64
q-14 35 -41 61q-25 27 -61 37q82 48 82 147q0 53 -29 96q-28 41 -83 64q-53 22 -128 22t-127 -25t-78 -70q-26 -46 -26 -103v-19v-512z" />
    <glyph glyph-name="agrave" unicode="&#xe0;" 
d="M35 141l-2 -10q0 -35 23 -70q23 -36 61 -56q38 -21 84 -21q57 0 104 22q48 23 84 62q0 -78 82 -78q42 0 58 10v64l-33 -5q-15 2 -20 12t-5 31v298q0 48 -28 79t-76 45q-45 13 -99 13q-67 0 -114 -24q-48 -25 -70 -65q-23 -41 -23 -85h82q0 51 32 77q31 25 89 25
q121 0 121 -92q0 -28 -17 -42t-42 -19q-6 -1 -24 -3q-19 -3 -38 -3l-47 -3q-69 -11 -109 -34q-39 -23 -55 -56q-8 -17 -13 -36q-5 -18 -5 -36zM383 268v-94q0 -36 -26 -62q-26 -27 -64 -40q-45 -17 -74 -17q-84 0 -92 78q0 43 31 65t88 34l91 18q37 7 46 18zM309 594h68
l-90 140h-107z" />
    <glyph glyph-name="aacute" unicode="&#xe1;" 
d="M35 141l-2 -10q0 -35 23 -70q23 -36 61 -56q38 -21 84 -21q57 0 104 22q48 23 84 62q0 -78 82 -78q42 0 58 10v64l-33 -5q-15 2 -20 12t-5 31v298q0 48 -28 79t-76 45q-45 13 -99 13q-67 0 -114 -24q-48 -25 -70 -65q-23 -41 -23 -85h82q0 51 32 77q31 25 89 25
q121 0 121 -92q0 -28 -17 -42t-42 -19q-6 -1 -24 -3q-19 -3 -38 -3l-47 -3q-69 -11 -109 -34q-39 -23 -55 -56q-8 -17 -13 -36q-5 -18 -5 -36zM383 268v-94q0 -36 -26 -62q-26 -27 -64 -40q-45 -17 -74 -17q-84 0 -92 78q0 43 31 65t88 34l91 18q37 7 46 18zM367 734h-107
l-90 -140h68z" />
    <glyph glyph-name="acircumflex" unicode="&#xe2;" 
d="M35 141l-2 -10q0 -35 23 -70q23 -36 61 -56q38 -21 84 -21q57 0 104 22q48 23 84 62q0 -78 82 -78q42 0 58 10v64l-33 -5q-15 2 -20 12t-5 31v298q0 48 -28 79t-76 45q-45 13 -99 13q-67 0 -114 -24q-48 -25 -70 -65q-23 -41 -23 -85h82q0 51 32 77q31 25 89 25
q121 0 121 -92q0 -28 -17 -42t-42 -19q-6 -1 -24 -3q-19 -3 -38 -3l-47 -3q-69 -11 -109 -34q-39 -23 -55 -56q-8 -17 -13 -36q-5 -18 -5 -36zM383 268v-94q0 -36 -26 -62q-26 -27 -64 -40q-45 -17 -74 -17q-84 0 -92 78q0 43 31 65t88 34l91 18q37 7 46 18zM281 686l66 -92
h79l-98 140h-94l-99 -140h80z" />
    <glyph glyph-name="atilde" unicode="&#xe3;" 
d="M35 141l-2 -10q0 -35 23 -70q23 -36 61 -56q38 -21 84 -21q57 0 104 22q48 23 84 62q0 -78 82 -78q42 0 58 10v64l-33 -5q-15 2 -20 12t-5 31v298q0 48 -28 79t-76 45q-45 13 -99 13q-67 0 -114 -24q-48 -25 -70 -65q-23 -41 -23 -85h82q0 51 32 77q31 25 89 25
q121 0 121 -92q0 -28 -17 -42t-42 -19q-6 -1 -24 -3q-19 -3 -38 -3l-47 -3q-69 -11 -109 -34q-39 -23 -55 -56q-8 -17 -13 -36q-5 -18 -5 -36zM383 268v-94q0 -36 -26 -62q-26 -27 -64 -40q-45 -17 -74 -17q-84 0 -92 78q0 43 31 65t88 34l91 18q37 7 46 18zM402 723
q-4 -21 -14 -34t-37 -13q-22 3 -52 16l-49 16q-17 5 -35 5q-90 0 -104 -108h47q14 45 47 45h14q2 -1 6 -1q9 -3 14 -4l41 -14l40 -14q12 -4 31 -4q43 0 69 32q27 33 31 78h-49z" />
    <glyph glyph-name="adieresis" unicode="&#xe4;" 
d="M35 141l-2 -10q0 -35 23 -70q23 -36 61 -56q38 -21 84 -21q57 0 104 22q48 23 84 62q0 -78 82 -78q42 0 58 10v64l-33 -5q-15 2 -20 12t-5 31v298q0 48 -28 79t-76 45q-45 13 -99 13q-67 0 -114 -24q-48 -25 -70 -65q-23 -41 -23 -85h82q0 51 32 77q31 25 89 25
q121 0 121 -92q0 -28 -17 -42t-42 -19q-6 -1 -24 -3q-19 -3 -38 -3l-47 -3q-69 -11 -109 -34q-39 -23 -55 -56q-8 -17 -13 -36q-5 -18 -5 -36zM383 268v-94q0 -36 -26 -62q-26 -27 -64 -40q-45 -17 -74 -17q-84 0 -92 78q0 43 31 65t88 34l91 18q37 7 46 18zM246 705h-92
v-101h92v101zM408 705h-92v-101h92v101z" />
    <glyph glyph-name="aring" unicode="&#xe5;" 
d="M35 141l-2 -10q0 -35 23 -70q23 -36 61 -56q38 -21 84 -21q57 0 104 22q48 23 84 62q0 -78 82 -78q42 0 58 10v64l-33 -5q-15 2 -20 12t-5 31v298q0 48 -28 79t-76 45q-45 13 -99 13q-67 0 -114 -24q-48 -25 -70 -65q-23 -41 -23 -85h82q0 51 32 77q31 25 89 25
q121 0 121 -92q0 -28 -17 -42t-42 -19q-6 -1 -24 -3q-19 -3 -38 -3l-47 -3q-69 -11 -109 -34q-39 -23 -55 -56q-8 -17 -13 -36q-5 -18 -5 -36zM383 268v-94q0 -36 -26 -62q-26 -27 -64 -40q-45 -17 -74 -17q-84 0 -92 78q0 43 31 65t88 34l91 18q37 7 46 18zM281 756
q-40 0 -66 -26t-26 -66q0 -26 12 -47t33 -33t47 -12q40 0 66 26t26 66t-26 66t-66 26zM230 664q0 21 15 37q13 16 36 16q22 0 38 -15q15 -16 15 -38t-15 -37q-16 -16 -38 -16q-21 0 -36 16q-15 15 -15 37z" />
    <glyph glyph-name="ae" unicode="&#xe6;" horiz-adv-x="889" 
d="M752 164q0 -16 -18 -43t-49 -43q-32 -17 -68 -17q-75 0 -113 44q-39 44 -39 127h383q0 97 -25 163q-26 68 -76 105t-126 37q-45 0 -80 -11q-19 -7 -30 -13q-13 -7 -21 -12q-4 -2 -15 -12l-7 -7q-11 -9 -21 -19q-38 40 -70 57q-35 17 -100 17q-102 0 -158 -43
q-58 -43 -58 -131h82q5 43 29 72q24 30 90 30q123 0 123 -86q0 -56 -45 -61l-145 -19q-96 -12 -127 -61q-33 -49 -33 -103q0 -66 47 -109q47 -42 117 -42q46 0 86 12q39 10 70 35q30 24 57 63q28 -46 70 -77q44 -33 123 -33q58 0 87 10q19 5 31 12q15 9 23 14q42 28 68 73
q11 20 19 40q7 17 7 31h-88zM465 303q0 37 20 75q19 37 52 59q31 22 72 22q74 0 109 -44q17 -21 28 -50q10 -27 10 -62h-291zM383 180q0 -34 -22 -62t-59 -44q-39 -17 -81 -17q-47 0 -70 24q-24 23 -24 67q0 45 31 61q17 9 38 15q15 5 42 10q123 16 145 32v-86z" />
    <glyph glyph-name="ccedilla" unicode="&#xe7;" horiz-adv-x="500" 
d="M217 -12l-55 -74l18 -19q27 7 39 7q15 0 31 -9t16 -30q0 -23 -17 -34q-16 -9 -38 -9q-28 0 -66 16l-16 -39q50 -24 96 -24q54 0 86 26q31 25 31 68q0 30 -19 52t-65 22l-31 -4l37 47q56 0 94 19q37 18 63 47q24 29 39 66q13 34 17 68h-84q-12 -60 -46 -91
q-35 -32 -81 -32q-143 0 -143 201q0 80 35 139q34 58 110 58q105 0 125 -113h84q-8 81 -54 136q-48 55 -142 55q-84 0 -139 -37q-56 -37 -85 -104q-28 -65 -28 -150q0 -100 50 -171q50 -70 138 -87z" />
    <glyph glyph-name="egrave" unicode="&#xe8;" 
d="M420 164q0 -17 -17 -43q-18 -27 -49 -43q-32 -17 -69 -17q-75 0 -113 44q-39 44 -39 127h383q0 117 -41 200q-17 34 -49 62q-31 26 -66 39q-34 12 -73 12q-50 0 -92 -19q-46 -21 -80 -56q-37 -38 -56 -96q-11 -32 -15 -62q-5 -35 -5 -66q0 -100 49 -170q32 -44 78 -68
q47 -24 107 -24q58 0 88 10q10 3 27 11l5 2q18 9 23 13q45 29 67 74q22 43 27 70h-90zM133 303q0 38 20 76q19 35 53 58q31 22 73 22q73 0 108 -44q17 -21 28 -51q9 -28 9 -61h-291zM291 594h68l-90 140h-107z" />
    <glyph glyph-name="eacute" unicode="&#xe9;" 
d="M420 164q0 -17 -17 -43q-18 -27 -49 -43q-32 -17 -69 -17q-75 0 -113 44q-39 44 -39 127h383q0 117 -41 200q-17 34 -49 62q-31 26 -66 39q-34 12 -73 12q-50 0 -92 -19q-46 -21 -80 -56q-37 -38 -56 -96q-11 -32 -15 -62q-5 -35 -5 -66q0 -100 49 -170q32 -44 78 -68
q47 -24 107 -24q58 0 88 10q10 3 27 11l5 2q18 9 23 13q45 29 67 74q22 43 27 70h-90zM133 303q0 38 20 76q19 35 53 58q31 22 73 22q73 0 108 -44q17 -21 28 -51q9 -28 9 -61h-291zM384 734h-107l-90 -140h68z" />
    <glyph glyph-name="ecircumflex" unicode="&#xea;" 
d="M420 164q0 -17 -17 -43q-18 -27 -49 -43q-32 -17 -69 -17q-75 0 -113 44q-39 44 -39 127h383q0 117 -41 200q-17 34 -49 62q-31 26 -66 39q-34 12 -73 12q-50 0 -92 -19q-46 -21 -80 -56q-37 -38 -56 -96q-11 -32 -15 -62q-5 -35 -5 -66q0 -100 49 -170q32 -44 78 -68
q47 -24 107 -24q58 0 88 10q10 3 27 11l5 2q18 9 23 13q45 29 67 74q22 43 27 70h-90zM133 303q0 38 20 76q19 35 53 58q31 22 73 22q73 0 108 -44q17 -21 28 -51q9 -28 9 -61h-291zM281 686l66 -92h79l-98 140h-94l-99 -140h80z" />
    <glyph glyph-name="edieresis" unicode="&#xeb;" 
d="M420 164q0 -17 -17 -43q-18 -27 -49 -43q-32 -17 -69 -17q-75 0 -113 44q-39 44 -39 127h383q0 117 -41 200q-17 34 -49 62q-31 26 -66 39q-34 12 -73 12q-50 0 -92 -19q-46 -21 -80 -56q-37 -38 -56 -96q-11 -32 -15 -62q-5 -35 -5 -66q0 -100 49 -170q32 -44 78 -68
q47 -24 107 -24q58 0 88 10q10 3 27 11l5 2q18 9 23 13q45 29 67 74q22 43 27 70h-90zM133 303q0 38 20 76q19 35 53 58q31 22 73 22q73 0 108 -44q17 -21 28 -51q9 -28 9 -61h-291zM264 705h-92v-101h92v101zM426 705h-92v-101h92v101z" />
    <glyph glyph-name="igrave" unicode="&#xec;" horiz-adv-x="277" 
d="M182 523h-88v-523h88v523zM110 594h68l-90 140h-107z" />
    <glyph glyph-name="iacute" unicode="&#xed;" horiz-adv-x="277" 
d="M182 523h-88v-523h88v523zM285 734h-107l-90 -140h68z" />
    <glyph glyph-name="icircumflex" unicode="&#xee;" horiz-adv-x="277" 
d="M182 523h-88v-523h88v523zM133 686l66 -92h79l-98 140h-94l-99 -140h80z" />
    <glyph glyph-name="idieresis" unicode="&#xef;" horiz-adv-x="277" 
d="M182 523h-88v-523h88v523zM98 705h-92v-101h92v101zM260 705h-92v-101h92v101z" />
    <glyph glyph-name="eth" unicode="&#xf0;" 
d="M469 697l-47 39l-106 -50q-21 17 -44 30q-30 14 -47 20l-75 -35q50 -20 90 -53l-119 -56l43 -41l123 60q79 -61 111 -142l-2 -2q-48 56 -132 56q-69 0 -122 -38q-51 -36 -79 -100q-28 -62 -28 -131t27 -131q25 -60 83 -100q56 -39 140 -39q43 0 86 17q41 17 73 52
q37 38 57 98q20 63 20 146q0 69 -19 129q-19 62 -54 117q-37 57 -87 103zM125 254q0 41 13 81q12 44 46 78t93 34t93 -33q34 -35 47 -78q13 -42 13 -82t-13 -82q-13 -43 -47 -77t-93 -34t-93 34t-46 78q-13 40 -13 81z" />
    <glyph glyph-name="ntilde" unicode="&#xf1;" 
d="M64 0h88v299q0 45 18 82q18 36 53 58q35 20 76 20q59 0 81 -36q22 -37 22 -99v-324h88v355q0 57 -21 99q-23 42 -62 62q-40 21 -96 21q-46 0 -81 -18q-38 -21 -56 -40q-21 -21 -26 -32v76h-84v-523zM420 723q-4 -21 -14 -34t-37 -13q-22 3 -52 16l-49 16q-17 5 -35 5
q-90 0 -104 -108h47q14 45 47 45h14q2 -1 6 -1q9 -3 14 -4l41 -14l40 -14q12 -4 31 -4q43 0 69 32q27 33 31 78h-49z" />
    <glyph glyph-name="ograve" unicode="&#xf2;" 
d="M35 262q0 -68 26 -134q25 -64 82 -104q55 -40 134 -40q80 0 135 40t82 104q27 65 27 134q0 71 -27 134q-27 62 -82 102q-55 39 -135 39q-77 0 -133 -39q-57 -41 -82 -102q-27 -63 -27 -134zM125 262q0 73 35 137q35 62 117 62q58 0 92 -31t48 -77q13 -45 13 -91
q0 -45 -13 -90q-13 -46 -48 -78q-34 -33 -92 -33q-56 0 -91 33q-33 30 -47 78q-14 47 -14 90zM276 594h68l-90 140h-107z" />
    <glyph glyph-name="oacute" unicode="&#xf3;" 
d="M35 262q0 -68 26 -134q25 -64 82 -104q55 -40 134 -40q80 0 135 40t82 104q27 65 27 134q0 71 -27 134q-27 62 -82 102q-55 39 -135 39q-77 0 -133 -39q-57 -41 -82 -102q-27 -63 -27 -134zM125 262q0 73 35 137q35 62 117 62q58 0 92 -31t48 -77q13 -45 13 -91
q0 -45 -13 -90q-13 -46 -48 -78q-34 -33 -92 -33q-56 0 -91 33q-33 30 -47 78q-14 47 -14 90zM418 734h-107l-90 -140h68z" />
    <glyph glyph-name="ocircumflex" unicode="&#xf4;" 
d="M35 262q0 -68 26 -134q25 -64 82 -104q55 -40 134 -40q80 0 135 40t82 104q27 65 27 134q0 71 -27 134q-27 62 -82 102q-55 39 -135 39q-77 0 -133 -39q-57 -41 -82 -102q-27 -63 -27 -134zM125 262q0 73 35 137q35 62 117 62q58 0 92 -31t48 -77q13 -45 13 -91
q0 -45 -13 -90q-13 -46 -48 -78q-34 -33 -92 -33q-56 0 -91 33q-33 30 -47 78q-14 47 -14 90zM281 686l66 -92h79l-98 140h-94l-99 -140h80z" />
    <glyph glyph-name="otilde" unicode="&#xf5;" 
d="M35 262q0 -68 26 -134q25 -64 82 -104q55 -40 134 -40q80 0 135 40t82 104q27 65 27 134q0 71 -27 134q-27 62 -82 102q-55 39 -135 39q-77 0 -133 -39q-57 -41 -82 -102q-27 -63 -27 -134zM125 262q0 73 35 137q35 62 117 62q58 0 92 -31t48 -77q13 -45 13 -91
q0 -45 -13 -90q-13 -46 -48 -78q-34 -33 -92 -33q-56 0 -91 33q-33 30 -47 78q-14 47 -14 90zM402 723q-4 -21 -14 -34t-37 -13q-22 3 -52 16l-49 16q-17 5 -35 5q-90 0 -104 -108h47q14 45 47 45h14q2 -1 6 -1q9 -3 14 -4l41 -14l40 -14q12 -4 31 -4q43 0 69 32
q27 33 31 78h-49z" />
    <glyph glyph-name="odieresis" unicode="&#xf6;" 
d="M35 262q0 -68 26 -134q25 -64 82 -104q55 -40 134 -40q80 0 135 40t82 104q27 65 27 134q0 71 -27 134q-27 62 -82 102q-55 39 -135 39q-77 0 -133 -39q-57 -41 -82 -102q-27 -63 -27 -134zM125 262q0 73 35 137q35 62 117 62q58 0 92 -31t48 -77q13 -45 13 -91
q0 -45 -13 -90q-13 -46 -48 -78q-34 -33 -92 -33q-56 0 -91 33q-33 30 -47 78q-14 47 -14 90zM246 705h-92v-101h92v101zM408 705h-92v-101h92v101z" />
    <glyph glyph-name="divide" unicode="&#xf7;" horiz-adv-x="550" 
d="M505 414h-452v-90h452v90zM222 134h111v109h-111v-109zM222 490h111v109h-111v-109z" />
    <glyph glyph-name="oslash" unicode="&#xf8;" horiz-adv-x="611" 
d="M537 520l-31 25l-65 -72q-61 64 -164 64q-77 0 -133 -39q-57 -41 -82 -102q-27 -63 -27 -134q0 -111 57 -186l-65 -72l32 -27l60 68q61 -61 158 -61q80 0 135 40t82 104q27 65 27 134q0 106 -54 179zM150 143q-25 50 -25 119q0 73 35 137q35 62 117 62q68 0 110 -51z
M408 373q22 -47 22 -111q0 -45 -13 -90q-13 -46 -48 -78q-34 -33 -92 -33q-67 0 -103 46z" />
    <glyph glyph-name="ugrave" unicode="&#xf9;" 
d="M70 133q0 -68 41 -112t108 -44q49 0 98 21q48 19 83 57v-55h88v527h-88v-316q0 -63 -40 -106t-92 -54l-24 -2q-35 0 -61 26q-27 26 -27 73v379h-86v-394zM258 594h68l-90 140h-107z" />
    <glyph glyph-name="uacute" unicode="&#xfa;" 
d="M70 133q0 -68 41 -112t108 -44q49 0 98 21q48 19 83 57v-55h88v527h-88v-316q0 -63 -40 -106t-92 -54l-24 -2q-35 0 -61 26q-27 26 -27 73v379h-86v-394zM418 734h-107l-90 -140h68z" />
    <glyph glyph-name="ucircumflex" unicode="&#xfb;" 
d="M70 133q0 -68 41 -112t108 -44q49 0 98 21q48 19 83 57v-55h88v527h-88v-316q0 -63 -40 -106t-92 -54l-24 -2q-35 0 -61 26q-27 26 -27 73v379h-86v-394zM281 686l66 -92h79l-98 140h-94l-99 -140h80z" />
    <glyph glyph-name="udieresis" unicode="&#xfc;" 
d="M70 133q0 -68 41 -112t108 -44q49 0 98 21q48 19 83 57v-55h88v527h-88v-316q0 -63 -40 -106t-92 -54l-24 -2q-35 0 -61 26q-27 26 -27 73v379h-86v-394zM246 705h-92v-101h92v101zM408 705h-92v-101h92v101z" />
    <glyph glyph-name="yacute" unicode="&#xfd;" horiz-adv-x="500" 
d="M252 96l-143 427h-99l195 -539l-35 -83q-10 -19 -22 -28q-13 -8 -37 -8q-31 0 -52 8v-80q30 -8 37 -8q47 0 71 6q22 6 42 26q18 18 37 61q22 45 55 132q14 36 39 102l14 37q6 16 18 50q27 75 44 121q24 64 72 203h-95zM433 734h-107l-90 -140h68z" />
    <glyph glyph-name="thorn" unicode="&#xfe;" 
d="M57 -207h88l1 262q20 -32 56 -51q39 -20 85 -20q82 0 134 43q53 44 75 111q22 66 22 139q0 75 -25 132q-25 58 -76 93q-50 35 -118 35q-62 0 -94 -24q-17 -13 -32 -28q-14 -14 -28 -34v268h-88v-416v-510zM141 236q0 54 11 106q11 49 42 83t89 34q143 0 143 -197
q0 -89 -36 -145t-105 -56q-52 0 -98 41q-46 40 -46 134z" />
    <glyph glyph-name="ydieresis" unicode="&#xff;" horiz-adv-x="500" 
d="M252 96l-143 427h-99l195 -539l-35 -83q-10 -19 -22 -28q-13 -8 -37 -8q-31 0 -52 8v-80q30 -8 37 -8q47 0 71 6q22 6 42 26q18 18 37 61q22 45 55 132q14 36 39 102l14 37q6 16 18 50q27 75 44 121q24 64 72 203h-95zM213 705h-92v-101h92v101zM375 705h-92v-101h92v101
z" />
    <glyph glyph-name="OE" unicode="&#x152;" horiz-adv-x="1000" 
d="M523 719l-2 -74q-54 91 -179 91q-113 0 -183 -62q-70 -61 -97 -149q-27 -87 -27 -170q0 -108 35 -195q35 -86 100 -132q66 -48 158 -48q59 0 92 13q37 15 56 32q14 12 21 21q5 6 12 14t12 14v-74h444v86h-352v240h334v86h-334v219h350v88h-440zM518 230q0 -59 -25 -96
t-64 -54t-72 -17q-53 0 -92 14t-62 41q-23 24 -43 71q-25 60 -25 149q0 119 42 218q41 98 167 98q50 0 89 -19q41 -19 63 -57q22 -37 22 -86v-262z" />
    <glyph glyph-name="oe" unicode="&#x153;" horiz-adv-x="943" 
d="M807 164q0 -19 -16 -44t-49 -42q-32 -17 -70 -17q-48 0 -83 20q-36 21 -52 59q-17 40 -17 92h382q0 96 -25 162q-26 69 -75 106t-124 37q-72 0 -119 -25q-49 -25 -84 -80q-64 105 -198 105q-77 0 -133 -39q-57 -41 -82 -102q-27 -63 -27 -134q0 -68 26 -134
q25 -64 82 -104q55 -40 134 -40q50 0 104 21q54 20 84 81q72 -102 195 -102q56 0 85 10q27 8 58 26q44 29 66 73q11 20 19 40q7 17 7 31h-88zM520 303q0 37 20 75q19 37 52 59q31 22 72 22q74 0 109 -44q17 -20 29 -50q9 -28 9 -62h-291zM125 262q0 73 35 137q35 62 117 62
q58 0 92 -31t48 -77q13 -45 13 -91q0 -45 -13 -90q-13 -46 -48 -78q-34 -33 -92 -33q-56 0 -91 33q-33 30 -47 78q-14 47 -14 90z" />
    <glyph glyph-name="Scaron" unicode="&#x160;" horiz-adv-x="666" 
d="M600 508q0 25 -6 52l-2 6q-9 31 -15 46q-20 50 -80 87q-61 37 -177 37q-85 0 -140 -31q-57 -32 -82 -81q-26 -50 -26 -108q0 -60 28 -94q26 -36 73 -56q44 -20 93 -31l107 -24q57 -13 92 -29q34 -15 47 -37t13 -61q0 -47 -29 -73t-72 -37q-44 -11 -86 -11q-51 0 -97 17
q-44 16 -73 54t-29 98h-90q0 -129 76 -190q77 -62 213 -62q68 0 132 21q65 20 107 69q42 50 42 127q0 154 -162 194l-205 47q-86 18 -86 89q0 73 51 100q50 27 113 27q41 0 85 -14q37 -15 66 -47q15 -20 22 -39q7 -20 7 -46h90zM318 835l-66 92h-80l99 -140h94l98 140h-79z
" />
    <glyph glyph-name="scaron" unicode="&#x161;" horiz-adv-x="496" 
d="M447 373q0 28 -13 64q-14 38 -59 68q-47 32 -129 32q-53 0 -98 -18q-47 -18 -72 -55q-27 -37 -27 -93q0 -42 21 -69t54 -42t70 -23l77 -18q59 -16 82 -30q22 -13 22 -46q0 -40 -34 -61t-85 -21q-82 0 -109 32q-30 33 -30 75h-86q0 -26 8 -55l7 -21l3 -9q14 -38 64 -68
q49 -31 143 -31q61 0 108 22q47 21 72 60q27 39 27 92q0 42 -21 70q-23 28 -58 44q-29 14 -40 17q-4 1 -10 3q-19 5 -31 8l-74 18q-45 10 -58 16q-19 9 -29 20q-9 12 -9 33q0 30 20 47q19 16 42 22q30 5 43 5q123 0 123 -88h86zM248 640l-66 91h-80l99 -139h94l98 139h-79z
" />
    <glyph glyph-name="Ydieresis" unicode="&#x178;" horiz-adv-x="664" 
d="M285 0h96v287l271 432h-113l-207 -346l-205 346h-113l271 -432v-287zM307 901h-92v-101h92v101zM469 901h-92v-101h92v101z" />
    <glyph glyph-name="florin" unicode="&#x192;" 
d="M158 6l43 -6q68 0 109 51q39 50 55 142l51 282h102v54h-90q15 159 78 159q24 0 47 -14l10 64q-34 8 -59 8q-37 0 -62 -16t-40 -43q-16 -28 -28 -68q-2 -8 -8 -33q-1 -5 -2 -9q-4 -19 -9 -48h-97v-54h86l-59 -313q-9 -46 -26 -73q-17 -26 -46 -26q-17 1 -43 11z" />
    <glyph glyph-name="circumflex" unicode="&#x2c6;" horiz-adv-x="332" 
d="M166 686l66 -92h79l-98 140h-94l-99 -140h80z" />
    <glyph glyph-name="tilde" unicode="&#x2dc;" horiz-adv-x="332" 
d="M287 723q-4 -21 -14 -34t-37 -13q-22 3 -52 16l-49 16q-17 5 -35 5q-90 0 -104 -108h47q14 45 47 45h14q2 -1 6 -1q9 -3 14 -4l41 -14l40 -14q12 -4 31 -4q43 0 69 32q27 33 31 78h-49z" />
    <glyph glyph-name="endash" unicode="&#x2013;" horiz-adv-x="1000" 
d="M1000 240l-2 73h-998l2 -73h998z" />
    <glyph glyph-name="emdash" unicode="&#x2014;" 
d="M-8 252h567v70h-567v-70z" />
    <glyph glyph-name="quoteleft" unicode="&#x2018;" horiz-adv-x="223" 
d="M64 469h104v107h-53q0 43 11 70q10 23 42 34v45q-50 -9 -77 -49t-27 -102v-105z" />
    <glyph glyph-name="quoteright" unicode="&#x2019;" horiz-adv-x="223" 
d="M105 611q0 -92 -52 -101v-47q36 7 59 30q15 15 21 26q9 15 13 27q10 29 10 65v108h-103v-108h52z" />
    <glyph glyph-name="quotesinglbase" unicode="&#x201a;" horiz-adv-x="277" 
d="M86 0h55q0 -102 -55 -102v-46q103 22 103 148v105h-103v-105z" />
    <glyph glyph-name="quotedblleft" unicode="&#x201c;" horiz-adv-x="332" 
d="M307 576h-53q0 41 9 69t44 33v47q-58 -13 -81 -54t-23 -103v-99h104v107zM141 576h-53q0 40 11 70q10 27 42 32v47q-104 -26 -104 -157v-99h104v107z" />
    <glyph glyph-name="quotedblright" unicode="&#x201d;" horiz-adv-x="332" 
d="M25 611h53q0 -38 -9 -67t-44 -34v-47q104 26 104 156v100h-104v-108zM191 611h53q0 -93 -53 -101v-47q104 26 104 156v100h-104v-108z" />
    <glyph glyph-name="quotedblbase" unicode="&#x201e;" horiz-adv-x="332" 
d="M25 0h53q0 -40 -9 -68t-44 -36v-46q104 26 104 158v97h-104v-105zM191 0h53q0 -42 -10 -68q-9 -29 -43 -36v-46q104 26 104 158v97h-104v-105z" />
    <glyph glyph-name="dagger" unicode="&#x2020;" 
d="M232 506h-189v-74h189v-592h94v592h188v74h-188v213h-94v-213z" />
    <glyph glyph-name="daggerdbl" unicode="&#x2021;" 
d="M43 516v-77h189v-320h-189v-76h189v-203h94v203h188v76h-188v320h188v77h-188v203h-94v-203h-189z" />
    <glyph glyph-name="bullet" unicode="&#x2022;" horiz-adv-x="350" 
d="M166 240q54 0 89 37q36 38 36 88q0 35 -16 63q-17 29 -46 46q-28 16 -63 16q-49 0 -87 -36q-38 -38 -38 -89q0 -52 37 -88q37 -37 88 -37z" />
    <glyph glyph-name="ellipsis" unicode="&#x2026;" horiz-adv-x="1000" 
d="M219 105h-104v-105h104v105zM553 105h-107v-105h107v105zM885 105h-104v-105h104v105z" />
    <glyph glyph-name="perthousand" unicode="&#x2030;" horiz-adv-x="1000" 
d="M6 539q0 -43 21 -78q21 -36 57 -57t78 -21q43 0 80 21q35 21 55 57q21 36 21 78t-21 78t-57 57t-78 21t-78 -21t-57 -57t-21 -78zM68 539q0 26 13 45q12 22 34 35q23 12 47 12q25 0 47 -12q21 -11 35 -33q12 -22 12 -47q0 -39 -28 -66q-28 -28 -66 -28q-39 0 -66 28
q-28 27 -28 66zM318 148q0 -44 22 -79q23 -38 58 -57q35 -20 77 -20q43 0 79 21t57 58q20 37 20 77q0 42 -21 78q-22 36 -57 58q-36 21 -78 21t-77 -21q-37 -21 -59 -57q-21 -36 -21 -79zM381 148q0 26 13 46q13 22 34 35q20 13 47 13q24 0 46 -12q21 -14 34 -35
q13 -22 13 -47q0 -38 -28 -65q-28 -28 -65 -28q-39 0 -66 28q-28 27 -28 65zM682 148q0 -42 21 -78t57 -57q35 -21 78 -21t80 21q35 21 55 57q21 36 21 78t-21 78q-22 36 -57 58q-36 21 -78 21q-43 0 -78 -21q-36 -21 -57 -57t-21 -79zM744 148q0 25 12 47q14 21 35 34
q20 13 47 13q25 0 46 -12q22 -14 35 -34q13 -22 13 -48q0 -38 -28 -65q-28 -28 -66 -28q-40 0 -67 28q-27 27 -27 65zM543 703h-55l-396 -723h54z" />
    <glyph glyph-name="guilsinglleft" unicode="&#x2039;" horiz-adv-x="332" 
d="M244 195l-105 80l105 84v86l-156 -123v-92l156 -123v88z" />
    <glyph glyph-name="guilsinglright" unicode="&#x203a;" horiz-adv-x="332" 
d="M191 277l-103 -82v-88l156 123v92l-156 123v-88z" />
    <glyph glyph-name="trademark" unicode="&#x2122;" horiz-adv-x="1000" 
d="M557 719h-112v-414h73v336l130 -336h51l131 336v-336h72v414h-111l-115 -305zM373 719h-328v-61h127v-353h74v353h127v61z" />
    </font>
</defs>
</svg>
